<?xml version="1.0" encoding="UTF-8" standalone="no"?>
<!-- Created with Inkscape (http://www.inkscape.org/) -->
<svg
   xmlns:svg="http://www.w3.org/2000/svg"
   xmlns="http://www.w3.org/2000/svg"
   version="1.0"
   width="420"
   height="475"
   id="svg2">
  <defs
     id="defs952" />
  <g
     transform="matrix(1.362902,0,0,1.362902,-79.19617,-76.85593)"
     id="g1348">
    <path
       d="M 212.62718,403.15359 C 212.4512,288.19734 212.62718,174.23453 212.62718,59.125006 L 364.13101,58.971731 L 364.28428,255.9074 C 364.61922,334.1401 296.45158,402.81866 212.62718,403.15359 z "
       style="fill:#0e3293;fill-opacity:1;stroke:#000000;stroke-width:1.25;stroke-linecap:butt;stroke-linejoin:round;stroke-miterlimit:4;stroke-dasharray:none;stroke-opacity:1"
       id="path752" />
    <g
       id="g1341">
      <path
         d="M 238.40625,72.40625 C 237.58311,72.5503 236.7407,72.807041 235.84375,73.0625 C 234.69135,73.391757 233.87413,73.378251 232.875,73.84375 C 225.62566,76.659468 222.36233,75.507071 220.875,73.84375 C 219.56932,77.329337 222.00857,77.480265 225.3125,77.65625 C 225.3125,78.14446 224.14447,78.153551 223.65625,78.3125 C 221.86236,78.488482 220.04102,78.303684 218.21875,77.96875 C 216.91307,77.480541 215.91419,76.82017 215.25,75.84375 C 215.09672,75.508816 215.09375,75.363485 215.09375,75.1875 C 214.75882,75.1875 215.11618,74.852568 214.78125,75.1875 C 213.9581,76.339901 214.1368,77.984114 214.625,79.3125 C 215.26649,80.95311 216.91891,81.290064 218.40625,81.625 C 220.35341,81.625 222.66919,80.627703 224.46875,80.46875 C 224.46875,80.780976 223.64176,80.758815 223.3125,81.09375 C 214.90508,85.215144 214.26859,83.260643 212.78125,82.4375 C 211.47558,85.718721 215.93072,87.382944 217.90625,86.71875 C 219.87612,85.566349 221.68726,84.575138 224.65625,82.78125 C 218.7353,87.061597 216.08518,93.952484 212.78125,88.34375 C 212.452,93.776497 211.30547,99.549836 216.25,98.0625 C 213.76354,103.18302 212.95994,108.45377 212.625,114.0625 C 212.29006,120.65332 212.64474,127.57224 212.46875,135.46875 C 212.30979,159.01633 212.452,180.92 212.78125,212.875 C 212.78125,218.30775 212.64474,390.39449 212.46875,393.1875 C 212.46875,392.5233 215.75298,389.70695 215.90625,389.21875 C 217.23463,387.55544 219.23849,383.30182 219.0625,380.84375 C 221.36731,384.63589 227.79689,383.46898 229.4375,380.5 C 225.9803,380.83493 221.21171,378.02268 226.15625,374.71875 C 227.13267,373.56635 227.26736,372.43067 227.625,371.125 C 228.11321,367.33286 225.14855,363.71375 222.84375,361.25 C 221.02716,358.76922 219.57315,356.64769 218.75,353.34375 C 218.08581,349.88087 218.23936,346.24143 219.0625,342.9375 C 218.90923,343.42571 219.21109,338.67956 220.1875,339.34375 C 220.1875,342.95991 220.34462,346.54863 221.34375,350.1875 C 222.1896,353.46872 223.49619,355.96494 225.625,358.09375 C 226.95339,359.24615 228.42745,360.0831 229.9375,360.90625 C 232.21959,362.05865 235.19816,361.40538 237.65625,360.40625 C 239.14358,360.40625 241.62615,358.44245 242.9375,357.625 C 243.60169,359.26561 244.73141,360.58904 246.21875,361.71875 C 247.34844,362.22966 248.84734,363.21874 249.6875,363.21875 C 248.84733,361.70871 247.88978,359.09515 248.53125,357.4375 C 250.35352,357.94274 252.16098,357.44132 254.3125,355.3125 C 256.77058,353.16097 257.26676,349.85552 256.9375,347.0625 C 255.7851,343.27036 253.6386,341.79488 249.6875,341.125 C 247.53597,340.81845 245.73138,341.1229 243.9375,341.96875 C 241.93924,342.94517 241.62822,343.76355 238.8125,346.25 C 234.86709,348.70808 233.22555,348.70696 231.25,348.21875 C 229.60939,347.88949 228.2774,346.91121 227.125,346.09375 C 225.81364,344.93567 225.12996,343.93932 224.3125,342.78125 C 223.97756,341.47558 223.3152,340.65239 223.15625,339.5 C 222.00385,335.40131 222.33581,331.42567 223,327.65625 C 223.15328,325.83966 223.66508,324.19456 224,322.53125 C 224.48821,321.55483 224.49206,320.38295 225.15625,319.71875 C 225.33224,319.54277 225.63651,319.71876 225.8125,319.71875 C 225.97146,321.20609 225.62588,323.1972 226.625,324.53125 C 226.77827,324.8378 226.78125,324.98026 226.78125,325.15625 C 227.6271,326.15537 227.92955,327.15128 228.59375,327.96875 C 229.59287,329.63207 230.91307,330.62328 232.21875,331.90625 C 233.21788,332.57612 234.02942,333.39533 235.1875,333.90625 C 236.66916,334.88267 238.48439,335.05185 240.125,335.875 C 244.07041,336.85142 248.02036,335.55369 251.8125,335.21875 C 253.47582,334.55456 254.95287,333.91418 256.28125,333.25 C 257.74588,333.25 258.58083,332.26972 260.0625,332.09375 C 262.35027,331.27061 264.83696,331.25089 266.8125,332.25 C 267.47669,332.56223 267.97758,332.91805 268.3125,333.40625 C 270.6173,339.34991 265.17395,343.29392 262.6875,344.78125 C 261.53509,345.93365 260.56746,346.88769 259.75,348.375 C 258.75087,350.34487 258.3956,352.83992 259.21875,354.96875 C 260.05893,356.45609 260.90242,357.78153 263.03125,358.09375 C 263.69544,358.26973 264.35284,358.43751 265,358.4375 C 265,360.41305 266.4726,362.89857 267.625,363.875 C 269.60055,364.72085 272.25471,365.20905 274.40625,363.875 C 275.22372,363.56845 275.86706,363.22966 276.53125,362.71875 C 278.34784,362.23054 280.1354,360.74204 282.28125,361.40625 C 282.76946,361.7128 283.27034,362.06277 283.78125,362.375 C 284.11618,362.70426 284.43776,363.23351 284.75,363.875 C 286.23733,362.39334 287.55979,360.39829 287.71875,357.78125 C 287.5598,357.11706 287.58225,356.44815 287.40625,355.625 C 286.76477,354.31933 285.5781,353.33222 283.9375,353.15625 C 279.65716,352.50909 276.68065,356.78832 272.09375,355.125 C 270.75969,354.48351 270.43751,353.3426 270.4375,352.03125 C 270.76676,351.0378 270.9466,350.04218 271.59375,349.53125 C 271.76973,349.19632 272.2588,348.86619 272.59375,348.53125 C 273.25794,348.04304 273.87588,347.548 274.875,347.21875 C 275.36321,346.88382 275.86407,346.55656 276.375,346.25 C 277.03919,345.73909 277.84403,345.24912 278.15625,344.25 C 278.66717,343.43254 278.83196,341.81432 278.34375,340.65625 C 277.34463,339.01564 276.38179,338.51762 274.40625,339.1875 C 279.99227,333.57309 277.35485,315.7887 267.3125,321.0625 C 268.64088,309.0219 252.82252,316.92959 248.03125,320.875 C 249.03038,317.90601 248.35554,321.37795 248.84375,318.25 C 247.35641,319.91331 244.07513,321.38381 242.28125,321.71875 C 239.46553,322.38294 236.67099,322.03891 234.03125,321.0625 C 233.54872,320.55159 232.89446,320.39744 232.40625,320.0625 C 231.25385,319.06905 230.43366,317.74615 229.28125,316.59375 C 227.283,314.11296 226.95427,310.65621 226.625,307.375 C 226.46605,304.91692 226.30952,303.92481 226.15625,299.15625 C 231.07808,301.46105 238.63563,294.71014 237.8125,288.125 C 237.8125,288.125 237.65328,287.96876 237.5,287.96875 C 230.25066,295.22377 224.48324,285.46399 224.8125,280.03125 C 225.97058,280.51946 227.45898,280.86409 229.28125,281.375 C 225.64239,276.25448 228.27628,274.13114 229.09375,264.90625 C 230.25183,264.41804 231.2314,264.40922 232.71875,264.5625 C 229.5908,260.12888 230.42984,257.33517 231.40625,254.03125 C 231.40625,254.51946 232.88381,247.43548 233.21875,245.125 C 234.52442,248.58788 236.19659,254.34962 236.84375,257.8125 C 237.8372,261.42298 238.64445,265.04863 238.15625,268.6875 C 238.15625,269.99317 239.64743,271.82136 239.3125,275.4375 C 240.28891,287.30212 251.65538,284.64921 250.65625,289.59375 C 254.29511,287.62389 254.13564,284.82864 253.3125,280.53125 C 254.31162,281.37143 254.93839,282.67162 255.9375,284 C 257.42484,286.63974 258.91037,289.08756 260.375,291.75 C 261.70339,293.3679 262.5206,295.36821 263.34375,297.34375 C 264.00795,298.82541 263.35439,300.31933 262.53125,301.625 C 260.22645,303.27129 257.43548,302.93664 255.125,301.9375 C 255.45993,302.09078 252.13949,301.61729 252.46875,299.3125 C 252.6277,298.33608 251.83197,297.51091 251.34375,297 C 250.85554,296.51179 250.16419,296.36321 249.5,295.875 C 247.85939,295.875 245.8879,295.8594 244.40625,297.5 C 231.05429,296.01267 238.31337,306.88702 239.3125,304.40625 C 237.16097,307.52852 241.12453,313.81162 247.0625,312.8125 C 247.22146,312.8125 247.20199,312.80954 247.53125,312.65625 C 245.71466,311.16892 245.22644,305.57699 247.53125,305.90625 C 248.68933,305.57699 250.19136,305.74119 251.34375,305.40625 C 252.6551,304.4128 253.30161,304.1094 257.09375,305.75 C 258.58109,306.41419 262.05186,310.03124 262.875,310.03125 C 263.51649,310.18452 264.17659,310.36617 264.6875,310.03125 C 266.15212,309.69631 266.81636,308.8544 267.96875,308.03125 C 267.96875,308.03125 269.94903,308.03125 270.125,308.03125 C 270.125,309.83082 268.63768,312.00654 270.125,313 C 280.15032,318.25677 280.14126,323.34618 285.75,335.875 C 285.75,336.02827 285.74999,336.21874 285.75,336.21875 C 286.23821,337.04189 287.24502,337.85554 288.0625,338.34375 L 289.6875,338.34375 C 290.35169,337.52628 291.16803,337.19515 291.65625,336.21875 C 298.57633,335.88949 298.43004,340.64647 293.15625,342.46875 C 302.71039,343.62115 304.0106,334.53211 299.90625,332.25 C 306.16214,327.30547 293.81049,324.02331 291.5,324.6875 C 289.04192,325.99318 288.5507,326.3311 288.0625,324.84375 C 286.57516,324.35555 285.26066,323.85963 284.4375,322.53125 C 282.95584,320.22645 283.26649,317.60849 282.625,314.96875 C 282.44902,314.48054 282.27826,313.95425 282.125,313.625 C 281.79574,313.46605 281.28397,313.30071 281.125,312.8125 C 281.125,312.8125 280.81547,312.80954 280.96875,312.65625 C 281.14473,312.32132 282.12527,312.32133 282.4375,312.65625 C 288.53444,316.75494 285.73528,318.91805 291.65625,319.40625 C 291.65625,321.06956 303.20995,327.64379 302.875,319.90625 L 302.875,319.71875 C 303.72085,319.23054 310.94656,318.90508 308.3125,327.3125 C 315.56184,323.52036 313.92306,314.31134 307.15625,313 C 308.0021,304.59826 297.4463,306.74978 294.5,313 C 289.37948,312.67074 290.50705,312.80365 285.5625,309.1875 C 285.40355,307.85912 284.44658,306.74914 285.09375,305.75 C 286.24615,305.41507 286.76478,304.4139 287.40625,303.4375 C 288.22372,302.2851 287.25299,300.65809 287.40625,299.5 C 287.25298,299.5 291.83311,299.9649 292.65625,298.8125 C 293.62699,297.81905 299.08605,299.63768 296.78125,304.40625 C 298.42186,303.0949 300.5743,301.61433 301.0625,299.15625 C 300.75027,296.51652 300.08606,295.3517 297.78125,294.6875 C 298.11618,292.71196 296.44726,290.74704 294.625,290.59375 C 294.1368,290.59375 293.83493,290.58222 293.5,290.40625 C 292.68254,288.76564 293.16006,288.6126 291.03125,287.4375 C 289.20898,287.28422 286.8909,287.29688 285.5625,288.9375 C 284.73936,289.93663 284.09672,291.24293 284.25,292.90625 C 284.91419,296.85734 279.84311,300.46578 275.875,300.3125 C 275.71605,299.97757 275.37769,300.30368 275.21875,299.96875 C 274.55456,299.96875 274.07046,299.15625 273.40625,299.15625 C 273.07132,299.15625 272.71875,298.83197 272.71875,298.34375 C 272.56548,298.34375 272.426,298.15624 272.25,298.15625 C 271.58581,297.00385 271.25498,297.00766 270.4375,296.03125 C 269.61436,295.36706 267.79982,293.89085 266.3125,289.28125 C 266.46577,286.32928 265.82812,284.65214 264.1875,283.1875 C 263.52331,280.70671 263.16888,278.41392 261.375,277.4375 C 260.88679,275.28598 259.08195,273.29215 258.59375,272.78125 C 263.69156,275.59696 267.62973,274.60738 269.78125,273.9375 C 269.9402,273.78422 270.12501,273.78124 270.125,273.78125 C 269.61409,272.96378 268.79486,272.47087 268.125,271.625 C 267.30754,270.80754 266.32342,269.6669 265.8125,268.84375 C 265.50027,268.20227 265.17868,267.8605 264.84375,267.53125 C 263.69135,265.70898 262.53039,264.06361 261.53125,262.09375 C 261.2247,261.75882 261.03124,261.77245 261.03125,261.4375 C 261.03125,260.62003 260.37203,259.94813 260.21875,259.125 C 259.73054,258.48352 259.7412,257.82611 259.40625,257.15625 C 258.74206,255.33965 258.25795,253.70312 257.59375,252.0625 C 257.44048,252.0625 257.43167,252.05369 257.25,251.71875 C 257.09672,250.07814 255.95994,248.9416 255.625,247.125 C 255.13679,245.9726 254.60753,244.82017 254.125,243.84375 C 253.47784,242.35642 252.97371,241.20339 252.15625,239.875 C 252.15625,239.38679 251.80952,238.88591 251.65625,238.375 C 250.50384,236.24618 248.84845,234.58902 247.71875,232.4375 C 247.20784,231.94929 246.70994,231.46518 246.375,230.625 C 244.55841,228.49618 243.58692,225.69657 242.28125,223.0625 C 241.9236,221.72844 241.61051,219.78011 241.28125,218.46875 C 240.94632,218.31548 241.62528,213.19042 241.9375,206.78125 C 241.78423,202.48388 241.61138,200.34372 242.28125,197.0625 C 242.76946,195.57516 242.94047,190.97372 243.09375,190.15625 C 244.09287,188.66892 245.71874,186.00112 245.71875,184.03125 C 246.05369,190.94565 245.23027,195.22735 245.40625,201.8125 C 245.23027,204.61118 245.41533,207.09053 246.0625,209.90625 L 246.0625,210.71875 C 246.26119,211.69517 246.71874,212.68811 246.71875,213.375 C 247.36023,215.34487 247.88978,217.29689 248.53125,218.9375 C 248.53125,219.60169 249.04007,220.08581 249.375,220.75 C 250.19247,222.23734 251.00087,224.04391 252,225.53125 C 252.30655,226.53038 253.16804,226.87885 253.65625,228.03125 C 255.13791,229.67186 258.90829,233.27942 261.21875,234.4375 C 260.54889,230.97462 259.90326,227.51684 259.75,224.03125 C 259.41506,219.93257 259.56522,215.99938 259.40625,212.03125 C 259.56521,208.26182 259.23907,204.94839 259.75,201.15625 C 259.23908,197.21084 259.39472,188.49413 259.21875,185.03125 C 260.05893,185.70112 259.88766,185.702 261.375,186.03125 C 260.88679,194.74522 262.20514,209.88475 262.875,217.78125 C 264.02741,226.00701 264.01862,235.25153 265.8125,243.5 C 266.14743,246.47467 266.15127,250.08783 266.96875,253.0625 C 267.63294,256.49699 268.11138,259.44905 268.78125,262.90625 C 269.11051,264.05865 269.79304,265.56635 270.28125,266.71875 C 270.61618,268.35936 271.41805,269.51268 271.90625,271 C 272.57612,272.30568 273.39829,273.44133 274.0625,274.59375 C 275.86206,277.07453 277.67275,278.39335 280.3125,279.875 C 280.80071,280.18723 281.30158,280.38382 281.8125,280.71875 C 281.96578,281.04801 282.63383,281.04303 282.96875,281.53125 C 284.12115,281.86619 285.1003,282.19901 286.09375,282.375 C 286.2527,282.375 288.54393,282.86347 290.03125,282.6875 C 291.18365,281.20016 289.36206,282.02654 287.5625,279.875 C 286.89831,279.21081 286.58196,278.38563 286.09375,277.5625 C 285.76449,277.40922 285.74999,277.2527 285.75,277.09375 C 285.57402,276.58283 285.40328,276.08195 285.25,275.59375 C 284.5858,274.60031 284.61322,273.15835 284.125,272.3125 C 282.9726,268.70202 282.45697,265.90037 281.96875,262.4375 C 281.48054,258.64536 280.80369,255.33193 280.46875,251.5625 C 279.98054,247.77037 279.82343,244.14172 279.3125,240.53125 C 279.3125,236.73911 278.676,233.10463 278.5,229.3125 C 278.16507,225.36708 277.68453,221.73818 277.53125,217.96875 C 277.34959,214.02334 276.84375,210.22963 276.84375,206.4375 C 276.51449,202.46938 276.1875,198.69255 276.1875,194.71875 C 275.37003,191.43753 276.37297,184.04868 274.0625,181.25 C 275.52712,181.73821 275.70313,181.75114 277.34375,183.0625 C 278.01362,186.36643 278.33581,193.60172 279,196.21875 C 279.15896,197.21787 279.3213,198.03212 279.65625,199.03125 C 280.32044,202.47143 280.96081,205.78983 281.625,209.09375 C 282.28919,212.55096 282.96379,215.81838 283.78125,219.28125 C 284.11618,221.09784 284.9375,222.9307 284.9375,224.90625 C 285.42571,226.37087 285.41805,227.66893 285.90625,229.15625 C 286.24118,231.12612 286.75596,232.95612 287.0625,234.75 C 287.88564,237.54302 288.06338,240.70699 289.0625,243.5 C 289.0625,244.81135 289.53423,246.14859 289.6875,247.125 C 290.17571,248.9416 290.84079,250.4219 290.6875,252.0625 C 291.50497,254.03805 291.34164,256.66395 292.1875,258.96875 C 293.00496,262.24998 293.62587,265.38628 294.625,268.53125 C 294.78396,269.66662 295.30979,270.66011 295.46875,271.8125 C 295.97967,272.63564 295.97472,273.46379 296.28125,274.28125 C 297.10439,277.4319 298.42686,280.53099 299.25,283.5 C 301.04388,287.80305 302.05047,292.06312 304.53125,296.03125 C 306.81902,299.15919 309.95131,304.2638 312.75,307.0625 C 314.54388,309.54329 315.87703,311.16396 318.1875,313.46875 C 320.31632,315.59757 322.31451,317.24023 324.625,319.0625 C 327.08307,320.72582 330.68726,322.03509 333.65625,323.1875 C 334.14446,322.67659 330.03396,316.28396 329.875,316.125 C 329.875,315.30753 329.21847,314.62998 328.90625,313.8125 C 328.57699,313.14831 328.24704,312.82044 328.09375,312.15625 C 327.75882,311.82131 327.42868,311.16716 327.09375,310.65625 C 326.42956,308.86237 325.44544,307.22853 324.78125,305.40625 C 322.80571,300.30843 321.3166,296.85377 319.5,292.0625 C 318.68253,288.93455 317.85141,285.80976 316.875,282.6875 C 316.03483,280.53597 316.04773,278.22258 315.40625,276.09375 C 314.40713,272.97148 313.91689,269.49999 313.09375,266.21875 C 312.7645,265.04365 312.92274,263.93364 312.28125,262.78125 C 312.28125,262.44632 312.28126,262.42599 312.28125,262.25 C 311.4354,258.63384 310.94543,255.34373 310.28125,252.0625 C 309.46378,244.98914 308.31433,237.73257 307.15625,230.8125 C 305.33966,219.4588 302.36999,208.58337 299.90625,196.71875 C 304.01061,211.86459 309.77807,224.70855 315.875,239.03125 C 317.03307,241.82426 318.35912,244.47645 319.6875,246.78125 C 320.33466,247.60439 320.51178,248.5858 321,249.25 C 321.15327,249.73821 321.50296,250.23908 321.65625,250.75 C 322.14446,251.9024 322.79305,252.71109 323.28125,253.6875 C 323.61618,254.51065 324.10824,255.00909 324.4375,255.65625 C 324.61916,255.83223 324.78125,256 324.78125,256 C 325.93365,258.15153 327.73438,260.46194 329.375,262.4375 C 331.01561,264.56632 333.01354,266.38766 335.5,267.875 C 335.98821,268.20994 336.63678,268.19928 337.125,268.6875 C 338.76561,269.35169 340.57814,269.35553 342.21875,269.84375 C 343.54713,269.84375 344.7256,269.65598 346.03125,269.34375 C 346.69544,269.00882 347.01477,269.01974 347.65625,268.84375 C 348.32044,267.86733 349.4864,267.5419 350.15625,266.71875 C 350.97372,265.56635 352.78125,263.26561 352.78125,261.625 C 352.13409,261.11408 351.61906,260.95427 351.3125,260.625 C 350.64831,260.29007 350.1359,259.94019 349.625,259.78125 C 347.16124,258.14064 345.36207,256.35055 343.5625,254.375 C 341.89918,252.0702 340.42782,249.74229 339.09375,247.4375 C 338.76449,246.61435 338.27244,246.13295 337.9375,245.46875 C 337.27331,243.65216 336.45399,242.66332 335.8125,241 C 334.81337,239.20044 334.00794,237.41034 333.34375,235.59375 C 332.36734,233.77148 332.02766,231.97284 331.1875,230.15625 C 330.0351,227.35756 329.05864,224.56573 327.90625,221.75 C 327.23638,220.10939 326.60169,218.31958 325.9375,216.65625 C 325.27331,215.50385 324.93154,214.34575 324.625,213.375 C 323.46692,210.55928 322.47642,207.44072 321.5,204.625 C 320.98909,203.46693 320.49118,202.30865 320.15625,201.15625 C 319.98027,200.00385 319.33492,198.71788 319,197.71875 C 318.00087,195.255 317.37998,192.74798 316.5625,190.4375 C 316.5625,189.64274 316.20723,189.28621 316.03125,188.46875 C 315.69631,187.6456 315.70696,186.8517 315.21875,186.1875 C 314.8895,184.87615 313.41718,179.44456 312.90625,177.78125 C 316.69839,188.00526 319.98319,193.92366 326.75,200.84375 C 328.71986,202.9896 330.87999,204.6209 333.34375,206.4375 C 334.49616,207.07898 335.50385,207.92074 336.65625,208.25 C 338.62612,209.22642 340.2432,209.71082 342.21875,210.375 C 343.37115,210.70993 344.54094,210.72172 345.875,210.875 C 347.84487,211.05098 349.96194,210.53098 351.9375,210.21875 C 354.57724,209.21963 357.55482,207.25025 358.53125,204.28125 C 358.37797,203.94632 356.89176,203.12499 356.5625,203.125 C 353.92276,201.81365 351.30777,200.53534 349.15625,198.71875 C 346.69249,197.07814 344.5439,195.06929 342.75,193.09375 C 340.59848,190.78895 338.95607,188.66829 337.46875,186.1875 C 336.46962,184.54122 335.81162,183.21164 334.8125,181.59375 C 334.8125,181.08283 334.34375,181.08195 334.34375,180.59375 C 334.0145,179.92955 333.51091,178.91977 333,178.125 C 331.69432,175.3036 330.37115,172.51176 329.21875,169.71875 C 323.63273,157.03666 313.5901,139.59516 306.1875,128.21875 C 306.67003,127.57159 306.49206,126.42301 307.15625,126.09375 C 308.15538,127.39943 311.61707,131.50682 312.28125,132.8125 C 313.09871,133.9649 313.92101,134.96108 314.5625,135.9375 C 315.7149,137.42483 316.37316,139.10057 317.53125,140.40625 C 318.68365,142.38179 319.98413,144.03013 321.3125,146 C 322.13565,146.66987 322.4608,147.4608 323.125,148.125 C 324.91889,150.27652 326.91096,152.42772 329.0625,154.25 C 330.87909,155.55568 332.65801,156.86436 334.65625,157.6875 C 335.9676,158.32899 337.14333,158.82402 338.625,159 C 338.78395,159 339.09959,159.34078 339.28125,159.1875 C 342.22754,159.1875 345.2185,159.33991 348.1875,158.1875 C 349.49318,157.52331 350.62884,156.87142 351.78125,156.03125 C 354.08606,153.90243 355.08581,151.75879 355.75,148.8125 C 355.75,147.47844 356.08195,146.51204 355.59375,144.03125 C 352.4431,143.54304 348.67101,144.53307 346.03125,143.375 C 345.03213,143.04574 344.3514,142.3777 343.375,142.21875 C 341.40513,141.06635 339.44428,139.74886 337.46875,138.4375 C 335.49888,136.62091 333.84172,134.45013 331.53125,132.65625 C 329.73736,130.35145 327.5666,128.38179 325.75,126.40625 C 323.95044,124.10144 321.97851,122.1173 320.15625,119.8125 C 315.69992,114.89067 312.76385,111.9119 305.84375,108.625 C 306.01974,107.96081 307.00001,107.82044 307,107.15625 C 307.48821,108.30865 310.7706,109.11138 311.59375,109.78125 C 312.41121,110.0878 312.92686,110.42074 313.75,110.75 C 315.89585,111.41987 318.00471,112.23054 320.15625,112.71875 C 321.30865,112.87203 322.62885,112.56845 323.78125,112.875 C 327.08517,112.72172 330.87206,112.89061 334,111.25 C 337.28122,110.27358 341.08199,107.46403 343.875,105.3125 C 346.02652,103.34263 347.84759,101.22196 349,98.40625 C 349.48821,96.76564 350.8037,95.421864 350.46875,93.78125 C 349.65129,93.627975 345.70128,95.937503 345.21875,95.9375 C 343.06722,97.089901 340.75381,97.239082 338.625,97.75 C 334.67959,97.908952 331.04215,97.919869 327.25,97.25 C 323.30459,97.096725 315.56458,96.43341 311.4375,98.25 C 312.10169,97.585808 312.77331,96.763615 313.4375,96.09375 C 322.63968,96.428684 328.38746,96.921834 336.125,92 C 337.61233,90.66594 338.96108,89.504089 339.9375,87.6875 C 340.26676,87.534225 340.25583,87.530979 340.4375,87.21875 C 341.74318,85.220498 341.42572,82.426825 340.9375,79.96875 C 339.93837,77.970498 340.08517,78.486464 336.78125,76 C 336.11706,79.46288 334.67979,80.61706 332.375,81.28125 C 331.37587,81.434525 330.69815,81.781249 329.875,81.78125 C 328.39334,82.116185 326.90214,81.426585 325.4375,81.9375 C 324.2851,81.9375 322.31659,82.273312 320.5,82.9375 C 322.47554,80.632698 324.93154,78.502943 324.625,75.375 C 320.6512,77.838753 316.72083,76.01179 312.59375,76.5 C 309.47148,77.675108 309.15947,77.141517 306.34375,79.78125 C 307.34288,76.812256 308.3125,74.201395 308.3125,73.84375 C 307.33608,74.025409 303.70337,76.193449 302.375,76.5 C 300.88767,76.988209 299.74883,77.324289 298.4375,77.8125 C 296.95584,77.8125 295.46761,78.324016 294.15625,78.5 C 292.82786,78.988209 291.3399,78.824288 290.1875,79.3125 C 288.88182,79.647434 287.72643,79.974699 286.75,80.28125 C 284.75175,81.61531 283.12116,83.254722 281.96875,85.40625 C 281.48054,86.376991 281.45995,87.242334 281.125,88.21875 C 281.125,90.188617 282.13976,91.67189 282.78125,93.3125 C 282.78125,93.471452 281.96577,93.792767 281.8125,93.96875 C 280.96665,94.791893 279.97371,95.617332 279.15625,96.59375 C 278.3331,98.081086 277.85285,100.21196 278.5,102.1875 C 279.00524,103.00497 279.48055,103.67956 279.96875,104.34375 C 280.30369,104.34375 280.47757,104.84375 280.8125,104.84375 C 282.78236,106.00183 284.61209,104.81746 286.09375,104 C 286.2527,104 286.40625,104.00298 286.40625,104.15625 C 286.76389,105.13267 285.74999,105.51476 285.75,106.15625 C 284.10939,109.79511 286.24119,114.21084 285.90625,118.15625 C 286.24118,121.94839 283.77653,123.28624 281.625,125.75 C 280.31933,127.23733 280.15597,129.21195 279.84375,131.1875 C 279.84375,131.34078 279.84375,131.50298 279.84375,131.65625 C 279.84375,131.83223 279.64745,132.18751 279.3125,132.1875 C 279.15923,132.1875 279.01972,131.67868 278.84375,131.34375 C 278.69048,130.19135 277.86259,129.20426 276.6875,128.875 C 275.22287,128.05186 273.23733,128.21379 271.75,129.03125 C 271.08581,129.20723 270.76946,129.53422 270.28125,129.6875 C 268.12972,131.17483 267.29575,134.46552 267.625,137.28125 C 266.96081,138.10439 265.50497,137.92956 264.6875,138.59375 C 263.35911,139.43393 262.35441,140.40739 261.53125,141.71875 C 260.71379,143.53534 260.90129,145.50996 261.71875,147.15625 C 262.69517,148.48463 264.18342,149.12796 266,149.28125 C 266.48821,149.12797 267.13948,148.79574 267.46875,149.125 C 268.11023,150.10142 266.96279,150.93253 266.65625,151.75 C 266.32132,152.59017 265.64745,152.60283 265.3125,153.25 C 264.00683,154.06746 262.35054,154.88653 260.375,155.0625 C 256.58287,156.03892 252.82637,155.22844 249.1875,156.5625 C 249.03423,156.5625 248.84077,156.68751 248.6875,156.6875 C 247.04121,157.17571 246.05866,158.52942 244.90625,159.6875 C 243.74818,160.65824 243.75794,163.45584 243.09375,164.9375 C 241.45313,161.14536 230.09553,163.62141 235.375,149.78125 C 235.375,149.45199 238.8039,137.77559 232.21875,128.0625 C 230.91307,128.88564 229.60964,128.21848 228.28125,127.90625 C 232.73758,129.21193 231.89559,127.06362 232.71875,125.09375 C 233.54189,121.96581 235.18638,119.66305 237.15625,117.6875 C 238.79686,116.38183 240.96493,115.6848 243.09375,115.84375 C 244.42781,116.01973 245.39858,116.51179 246.375,117 C 246.55666,117.51092 247.55097,117.17101 247.375,117.8125 C 251.67806,111.89722 241.93478,104.00184 229.09375,115.84375 C 229.42869,109.43458 232.22847,107.62882 236.84375,105.5 C 238.66034,104.65415 241.4307,105.14533 243.40625,105.65625 C 246.22197,106.80865 246.71195,107.2851 248.6875,108.4375 C 248.84078,108.77243 249.35825,108.79574 249.6875,109.125 C 252.96872,110.94727 257.25587,111.09287 260.71875,110.09375 C 262.04713,109.60554 262.87301,109.27243 263.84375,108.9375 C 265.50706,107.96108 267.1483,106.46987 267.8125,104.5 C 267.8125,104.16507 267.81249,104.15327 267.8125,104 C 267.47757,104.64148 266.95696,105.14533 266.46875,105.65625 C 263.01155,108.93747 259.21374,108.13024 256.75,107.625 C 254.4452,106.80186 252.63588,104.32838 248.84375,103 C 240.61799,99.872054 236.1789,102.3603 229.59375,108.28125 C 233.20991,102.51357 242.28216,91.497959 246.5625,98.90625 C 248.50966,96.777431 250.32401,95.434529 250.5,95.28125 L 252.15625,94.3125 C 258.40647,91.826039 263.6943,93.29779 261.71875,99.21875 C 262.54189,98.889493 266.65127,95.760644 267.46875,94.9375 C 267.80368,94.296016 268.63679,92.641487 269.125,92 C 269.94814,89.513539 270.10169,88.216731 269.4375,85.90625 C 268.10344,83.601448 266.33022,81.945444 263.84375,81.28125 C 262.36209,80.458107 258.25706,79.48027 256.59375,79.65625 C 257.59287,71.737041 249.04126,74.699293 244.25,75.1875 C 243.60851,73.85344 242.45608,72.894457 240.96875,72.40625 C 240.06045,72.238783 239.22939,72.2622 238.40625,72.40625 z M 316.03125,113.5625 C 318.84697,117.0197 323.95786,120.30956 327.75,123.4375 C 332.8535,127.5589 333.66509,128.38182 337.28125,129.6875 C 337.45724,129.6875 336.65625,128.0625 336.65625,128.0625 C 336.65625,127.57429 336.12203,127.38295 335.96875,126.71875 L 335.96875,126.5625 C 338.93773,126.71577 342.56226,128.53237 345.53125,126.5625 C 347.01858,126.07429 347.8243,124.5926 348.3125,123.28125 C 348.97671,122.10614 349.00524,120.65808 348.5,119.5 C 348.34104,119.32402 348.3125,119.3125 348.3125,119.3125 C 347.98326,119.64744 347.83224,120.14534 347.65625,120.65625 C 345.68071,123.29031 342.23846,124.09077 338.78125,123.9375 C 337.62885,124.09077 336.47074,123.59078 335.5,123.4375 C 333.52446,122.61436 331.36233,122.29983 329.875,120.8125 C 329.87501,120.47756 330.04277,120.12771 330.21875,119.96875 C 328.73142,118.9753 326.59784,118.50767 324.78125,117.53125 C 326.08693,118.17273 320.48758,115.22581 316.03125,113.5625 z M 324.4375,153.5625 C 325.26064,155.53805 327.56337,159.33994 328.5625,161.46875 C 329.53892,163.28535 330.71378,164.92773 331.53125,166.75 C 331.7129,166.92598 331.6875,166.40625 331.6875,166.40625 C 331.68751,166.25299 331.85527,166.25 332.03125,166.25 C 332.19021,166.25 332.20199,166.25 332.53125,166.25 C 333.68365,168.04388 334.82516,170.20314 336.3125,171.84375 C 336.46577,172.66689 337.13949,172.85852 337.46875,173.5 C 337.46874,173.67598 337.78422,173.65355 337.9375,173.8125 C 337.78423,174.14176 338.1223,174.32699 338.28125,174.65625 C 339.43366,175.78594 340.57814,177.46108 342.21875,178.4375 C 342.39473,178.43749 342.41507,178.28125 342.75,178.28125 C 343.56748,178.61619 344.05186,179.10257 344.875,179.4375 C 345.87412,179.92571 346.69134,180.26449 347.84375,180.59375 C 353.27649,181.74615 356.5729,180.08133 358.71875,175.625 C 348.50043,177.44159 346.1768,175.1515 340.4375,169.71875 C 335.64623,165.10915 330.20518,158.66599 324.4375,153.5625 z M 323.28125,201.5 C 323.94545,204.13972 326.27926,209.23824 327.25,212.03125 C 328.24914,214.51772 329.2081,216.6327 330.03125,218.9375 C 330.20723,219.11348 330.21875,218.625 330.21875,218.625 C 330.21876,218.31845 330.35526,218.3125 330.53125,218.3125 C 330.53124,218.3125 330.69902,218.3125 330.875,218.3125 C 332.02739,220.6173 333.16891,223.56722 334.65625,225.71875 C 334.80953,226.69517 335.32131,226.87003 335.65625,227.6875 C 335.65624,227.84077 335.96875,228.03422 335.96875,228.1875 C 335.96874,228.6757 336.31548,228.82429 336.46875,229.3125 C 337.46789,230.79983 338.60641,232.96108 340.09375,233.9375 C 340.24701,233.9375 340.25584,233.9375 340.4375,233.9375 C 342.0781,234.26675 343.39064,235.91804 345.03125,236.40625 C 346.69457,236.89446 348.48412,236.57045 349.8125,235.90625 C 350.78893,234.90712 354.09673,230.33108 354.25,228.84375 C 345.53604,232.30662 343.38177,229.17008 338.125,222.25 C 333.5154,216.32904 328.22579,207.75021 323.28125,201.5 z M 313.75,245.8125 C 314.25524,249.58762 315.07429,253.87292 315.5625,258 C 315.89177,258 315.8868,257.83791 316.375,257.65625 C 316.37499,257.65626 316.56547,257.8125 316.71875,257.8125 C 317.05368,258.9649 317.52331,260.62587 318.1875,261.625 C 318.1875,262.59574 318.84375,263.0604 318.84375,263.90625 C 319.66122,264.88266 319.33878,265.89831 320.15625,266.5625 C 320.82611,268.84458 321.64561,270.82874 322.46875,273.15625 C 322.46876,273.30951 322.95199,273.15923 323.28125,273.3125 C 324.76859,275.28805 325.45611,278.40513 327.25,280.375 C 327.76093,281.19814 328.23055,281.86436 328.71875,282.6875 C 329.87117,283.68094 330.52943,285.00087 331.6875,286 C 333.65738,287.64061 335.29479,289.44432 337.78125,290.75 C 338.59871,291.08493 339.76763,291.42074 340.4375,291.75 C 341.58989,291.90895 342.23936,292.375 343.0625,292.375 C 344.87908,292.55667 346.6807,292.23821 348.65625,291.75 C 350.1436,291.08581 351.59375,289.60936 351.59375,287.96875 C 351.59376,287.63951 351.59375,287.30368 351.59375,286.96875 C 351.59376,286.81547 351.61905,286.65923 351.3125,286.8125 C 350.97758,286.96579 350.30071,287.29006 349.8125,287.625 C 345.68544,289.26562 341.58788,288.63207 338.125,286.96875 C 334.82107,285.15216 332.37028,282.51474 330.21875,279.875 C 329.73055,279.05754 329.05369,278.38862 328.71875,277.71875 C 328.23056,276.2371 327.4169,275.27156 326.59375,273.9375 C 324.62389,270.65629 323.14061,267.52268 321.5,264.21875 C 319.98996,261.60171 319.17213,259.13974 317.84375,256.5 C 317.69047,256.19344 317.71875,256.17868 317.71875,255.84375 C 316.89562,254.84462 316.69814,253.06163 315.875,252.0625 C 315.54575,250.91011 315.87997,249.76064 315.0625,248.9375 C 314.55157,248.12002 314.2355,247.10439 313.90625,246.28125 C 313.73026,246.12797 313.75,245.97145 313.75,245.8125 z "
         style="opacity:1;fill:#dbca23;fill-opacity:1;stroke:#000000;stroke-width:0.625;stroke-linecap:round;stroke-linejoin:round;stroke-miterlimit:4;stroke-dasharray:none;stroke-opacity:1"
         id="path772" />
      <path
         d="M 256.21373,79.796435 C 258.03033,80.131369 258.85347,80.284644 259.00674,81.947962 C 259.00674,82.106914 259.18273,82.282896 258.85347,82.282896 C 258.51854,81.794687 258.36526,80.795561 256.21373,80.948836 C 256.21373,81.618704 255.8788,82.589446 255.21461,83.259315 C 253.90325,84.740973 251.59845,83.923506 249.46963,83.923506 C 248.80544,83.764554 248.65217,84.252764 248.80544,83.923506 C 249.14038,83.588572 249.46963,83.588572 249.80457,83.259315 C 249.80457,83.259315 249.95784,83.259315 249.95784,83.100363 C 249.62859,82.436171 249.62859,82.436171 249.46963,80.948836 C 249.95784,81.130495 249.95784,82.282896 250.44605,82.589446 C 250.78099,83.259315 251.2919,83.435297 251.93339,83.588572 C 254.23819,83.923506 254.23819,83.100363 254.7264,82.436171 C 254.7264,82.282896 254.7264,81.947962 254.57312,81.618704 C 253.90325,81.618704 253.23906,82.106914 252.57487,81.618704 C 252.4216,81.459753 252.26264,81.459753 252.08666,81.459753 C 251.93339,80.948836 251.77444,80.284644 252.08666,79.978094 C 252.4216,79.796435 253.08579,79.64316 253.574,79.796435 C 253.574,79.978094 253.42072,80.284644 253.42072,80.460627 C 253.574,80.642286 253.74998,80.642286 253.90325,80.460627 C 254.08491,80.460627 255.21461,80.795561 254.57312,79.308226 C 253.42072,78.490759 252.4216,78.331807 250.29278,79.132243 C 246.34169,81.130495 248.65217,85.740099 242.04431,86.228308 C 245.18929,84.922632 246.34169,83.259315 246.16571,82.436171 C 245.52422,83.259315 242.7085,84.252764 241.5561,83.923506 C 241.5561,83.923506 241.5561,83.764554 241.73208,83.764554 C 242.7085,83.435297 243.8609,83.100363 244.70108,82.282896 C 244.86003,82.282896 245.0133,82.282896 245.0133,82.282896 C 246.50064,81.130495 247.82902,79.132243 249.95784,78.490759 C 250.29278,78.331807 250.44605,78.155825 250.62203,78.155825 C 253.08579,77.51434 255.06133,77.667615 256.21373,79.796435 z "
         style="fill:#000000;fill-opacity:1;stroke:#000000;stroke-width:0.625;stroke-linecap:butt;stroke-linejoin:round;stroke-miterlimit:4;stroke-dasharray:none;stroke-opacity:1"
         id="path820" />
      <path
         d="M 248.69758,272.29849 C 250.17924,276.42556 251.49059,277.57796 252.48404,279.37752 C 252.97225,280.04171 252.81898,279.70678 253.30719,280.52992 M 224.65611,82.771105 C 226.41026,81.3746 227.87489,79.773728 230.69061,78.978968 M 239.24562,303.94694 C 239.42728,303.94694 239.75654,303.612 239.91549,303.43602 C 244.5251,302.94781 243.52597,303.26004 245.83645,301.79541 C 245.6775,303.94694 246.34169,304.41244 247.65304,305.25261 M 273.84036,151.60294 C 276.14516,154.7252 280.42551,152.4204 282.40105,153.26625 C 282.55433,153.26625 282.55433,153.26625 282.88926,153.26625 C 281.89014,149.96233 285.68227,147.49857 281.89014,144.68285 M 306.77178,127.23221 C 306.43684,124.10426 307.43597,121.13527 306.28357,118.00733 M 302.82637,318.91112 C 302.49143,318.42291 301.67396,317.42946 301.18576,317.27051 L 299.8517,317.27051 C 299.8517,317.27051 302.49143,315.30064 302.31545,315.11898 C 302.31545,315.11898 302.31545,309.35698 307.25999,312.32597 M 336.91018,75.67504 C 338.5508,81.28377 335.42285,85.075907 332.9591,86.563243 C 327.52635,89.844463 320.10103,91.507781 314.02112,90.66193 M 212.5701,161.49201 C 213.56922,167.25969 219.15524,167.90118 220.31332,170.54091 C 222.12991,167.56624 224.09978,167.07803 226.92118,164.4383 C 227.56266,164.13175 227.71594,160.49289 227.71594,160.49289 C 228.38013,167.25969 233.14868,166.41384 234.812,170.54091 C 237.27576,168.9003 235.78842,166.92476 237.60501,164.94921 C 237.93995,164.28502 239.24562,165.28415 240.24475,166.41384 C 241.22117,167.74223 242.37357,168.9003 242.86178,167.07803 L 243.03776,164.28502 M 292.60236,112.23964 L 293.26655,112.08637 C 297.39362,110.93397 295.90628,108.44751 299.36349,105.98943 C 299.52244,105.83048 299.52244,105.50122 299.36349,105.31956 C 299.03423,105.16629 298.87528,104.9903 298.54602,104.9903 C 298.54602,104.9903 298.37004,104.9903 298.21108,104.83135 C 296.72375,103.34969 295.90628,101.52742 294.24297,100.37502 C 294.08969,100.22175 293.93074,100.37502 293.93074,100.06847 C 295.24209,98.910396 296.24122,97.582012 296.72375,96.276336 C 297.05868,96.094677 297.54689,95.606468 297.70017,95.27721 C 296.24122,94.300792 295.57135,92.484199 294.24297,91.150139 C 297.21196,90.66193 302.00322,84.922632 300.3399,87.380709 M 305.84077,108.62349 C 305.50584,109.1117 303.49056,111.08724 302.82637,111.42218 C 302.49143,111.59816 302.1565,111.75143 302.00322,111.92742 C 301.82724,111.92742 301.67396,112.08637 301.49231,112.23964 C 301.49231,112.23964 301.49231,112.23964 301.49231,112.41563 L 301.33903,112.41563 C 301.82724,112.90384 302.1565,113.23877 302.64471,113.72698 M 273.99931,180.74222 C 273.5111,180.42999 273.02289,180.25401 272.51198,179.94178 C 270.04822,179.27759 269.23076,178.12519 267.40849,175.81471 M 259.18273,184.55138 C 258.69452,184.04615 257.85434,184.04615 257.0312,183.55794 C 254.90238,182.22388 255.39059,182.39986 253.42072,177.14877 C 251.59845,181.73567 252.57487,180.25401 251.44518,182.39986 C 250.62203,183.04702 250.11679,184.19942 249.29365,184.86361 C 248.14125,184.04615 246.50064,184.3754 245.83645,183.04702 C 246.16571,183.73392 242.22029,181.58239 243.37269,174.82126 M 245.6775,183.20029 C 243.70763,191.29549 239.75654,188.83173 237.45174,193.75356 C 236.63427,192.29461 234.812,190.78457 233.32467,189.65487 C 230.37838,187.32737 230.04345,186.35095 228.86834,182.55881 C 228.05087,186.01601 227.56266,186.01601 226.92118,187.01514 C 226.07533,188.47977 225.09891,189.65487 223.77052,190.29636 C 223.61725,190.63129 223.28232,190.78457 223.12904,191.14221 C 221.79498,191.78369 221.30677,193.11208 220.31332,193.44701 C 217.84957,189.31994 212.74608,190.29636 212.5701,182.55881 M 300.51589,87.227434 C 302.31545,85.564117 304.62025,82.436171 305.94863,79.489885 M 355.35995,144.34792 C 353.69664,147.16364 352.87349,148.47499 350.74467,149.62739 C 349.74555,149.96233 348.76913,150.60381 347.77568,150.77979 C 343.98354,151.93219 340.03245,151.268 336.57525,150.13831 C 336.24032,149.96233 336.08704,149.80337 335.75211,149.80337 C 333.78224,148.80992 331.80669,147.65185 330.16608,146.17019 C 328.34949,144.04137 326.37395,142.04312 325.04556,139.58504 C 324.06915,138.25098 323.22329,136.9453 322.25255,135.7929 L 320.76522,133.48242 C 319.94207,132.81823 319.61282,131.68854 318.6364,131.02435 C 317.14906,128.71387 315.33247,126.744 313.35693,124.4392 C 312.05125,122.79291 308.07745,118.67152 306.28357,117.34313 M 302.00322,102.19729 C 305.4661,102.03834 317.484,104.83135 320.60627,105.83048 C 324.71063,106.47196 328.67875,106.31869 332.80582,105.50122 C 334.59971,104.83135 336.57525,104.50209 338.39184,103.52568 C 340.70232,102.03834 348.10494,95.606468 350.23376,93.6366 M 212.90503,210.23346 C 213.7225,206.77058 219.64345,207.59373 221.13079,200.18544 C 221.13079,200.18544 221.30677,200.18544 221.46572,200.18544 C 221.95393,202.0077 222.12991,204.46578 224.28144,205.4422 L 224.43472,205.61818 C 226.56354,206.5946 227.89192,208.41687 229.37925,210.23346 C 229.53821,210.23346 233.81288,205.95312 233.50633,206.10639 C 235.63515,204.46578 235.78842,202.16098 236.63427,199.69723 C 237.60501,205.28893 241.06789,203.46666 241.88536,207.44045 M 212.90503,222.25136 C 213.23429,222.25136 214.72162,220.61075 214.8749,220.09983 C 214.8749,219.78761 215.20983,217.97101 216.03298,218.30595 C 216.52118,219.61162 217.02642,221.60987 218.00284,222.73957 C 219.15524,223.89197 220.31332,225.20332 221.619,226.37843 C 221.95393,227.1959 222.45917,227.86009 222.94738,228.50725 C 223.28232,228.01904 223.43559,227.53083 223.77052,226.86664 C 223.77052,226.70769 223.77052,226.37843 223.94651,226.37843 C 225.58712,224.55616 227.71594,223.22778 229.53821,221.42822 C 230.04345,220.94568 229.86746,218.6125 230.86659,218.45922 C 231.50807,226.37843 234.63602,224.2269 235.78842,228.01904 C 235.9644,228.3483 236.29934,228.3483 236.29934,228.19502 C 236.45261,224.55616 240.4037,224.04524 241.73208,219.61162 M 253.42072,177.30204 C 253.23906,181.07147 253.42072,192.11295 253.08579,195.72911 C 253.08579,199.69723 253.08579,202.97845 253.23906,206.77058 C 253.23906,210.05748 253.574,213.17975 254.08491,216.48368 C 254.39146,217.97101 254.23819,219.12341 254.7264,220.45747 C 254.7264,220.61075 254.7264,220.94568 254.90238,221.09896 C 254.90238,222.07538 255.39059,222.91555 255.54954,224.04524 C 255.8788,225.04437 256.38972,226.37843 257.0312,228.01904 L 258.51854,230.63607 L 260.99932,233.78105 M 212.90503,256.02295 C 213.0583,262.76705 216.85044,260.12732 218.66703,264.73692 C 220.15437,262.6081 223.43559,260.28059 223.77052,258.15177 C 225.92205,263.58452 226.92118,264.40766 228.86834,264.40766 M 287.49887,282.03429 C 285.529,280.55263 283.55345,278.24215 281.89014,276.42556 C 281.09538,274.93822 280.24953,273.29761 279.27311,271.99194 C 278.27398,270.5046 277.60979,269.01727 277.12158,267.53561 C 275.8159,264.73692 274.81678,261.4557 273.99931,258.32775 C 273.32944,254.84784 272.68796,251.23169 272.35302,247.92776 C 271.68883,244.15833 271.20062,240.36619 271.20062,236.75572 C 270.53643,233.11685 270.53643,229.17144 270.20717,225.53258 C 269.89495,221.76315 269.89495,217.81774 269.56001,214.0256 C 269.23076,210.05748 269.23076,206.28805 268.74255,202.64919 C 268.89582,201.33784 268.74255,200.03216 268.89582,199.03303 C 268.56656,195.08762 268.40761,191.93697 268.23163,188.16754 C 268.07835,186.35095 267.40849,180.9182 267.25521,175.63873 M 212.90503,278.24215 C 213.90416,283.01071 215.20983,281.21682 217.33865,284.8273 C 218.66703,280.21769 222.28319,283.01071 222.94738,276.93647 C 223.12904,279.06529 224.09978,279.06529 225.09891,279.88276 M 242.37357,259.95133 C 246.01243,270.35133 249.46963,269.68146 255.39059,272.65613 M 255.21461,272.96835 C 255.21461,269.68146 257.85434,264.73692 255.39059,260.61552 M 212.70634,294.21113 C 214.01202,297.18013 216.20896,299.15567 217.33865,300.46135 L 217.69629,300.46135 C 218.00284,300.30807 218.00284,300.30807 218.33778,299.97314 C 219.3369,296.51594 222.12991,297.02685 222.12991,293.72293 M 217.18538,372.42112 C 216.20896,376.05999 217.33865,378.21151 218.82599,380.0054 M 247.31811,348.89625 C 245.18929,349.71372 243.37269,351.02507 242.7085,353.32987 C 242.37357,354.63555 242.22029,355.63467 242.7085,356.78707 M 238.80283,346.25651 C 236.00982,351.51328 233.6596,353.32987 230.37838,352.01852 M 268.40761,345.25739 C 269.89495,343.12857 272.02377,339.82464 270.87137,336.36744 C 270.53643,335.23207 269.71896,333.41547 267.9194,332.41635 M 268.56656,356.6338 C 267.74342,357.45127 266.43774,357.93948 265.10368,357.93948 M 236.45261,235.75659 C 238.27488,239.87798 231.68406,241.34261 231.01986,246.46881 C 227.56266,243.82907 223.43559,245.46968 223.94651,236.75572 C 223.94651,236.39807 223.43559,236.90899 223.43559,237.3972 C 223.43559,242.34174 218.51376,241.18934 217.84957,246.28715 C 216.52118,242.49501 213.23429,243.65309 212.90503,236.39807 M 262.82159,287.11507 C 263.3098,286.11594 264.12727,283.6749 264.12727,282.85743 M 297.72288,294.23384 C 297.21196,296.36266 292.44908,296.51594 291.291,295.69847 C 291.11502,295.69847 290.96174,295.87445 290.96174,295.87445 C 290.96174,296.02773 290.96174,296.181 290.96174,296.181 C 290.96174,296.36266 293.44253,297.82729 292.44908,298.33253 M 259.69364,280.56966 C 260.18185,279.75219 260.62465,276.35744 260.62465,275.53997 M 333.27132,322.374 C 332.80582,321.88579 331.95997,321.2216 330.31936,319.58099 C 328.67875,317.75872 326.04469,315.45392 324.06915,312.99016 C 322.07089,310.83863 320.27701,308.70981 318.6364,306.89322 C 317.14906,305.07663 316.48487,303.26004 316.14994,302.77183 C 316.3316,303.26004 311.56304,295.21026 311.71632,294.54039 C 310.89885,292.57052 310.38793,290.92991 309.74077,289.59585 C 309.41151,288.44345 309.07658,287.29105 308.41239,286.13865 C 308.07745,285.65044 308.07745,284.98625 307.92418,284.49804 C 307.25999,282.03429 306.10759,279.70678 305.61938,277.2487 C 305.13117,276.27228 305.13117,275.44914 304.62025,274.45001 C 303.97877,271.657 303.15562,268.68801 302.49143,266.04827 C 301.67396,262.6081 301.0041,259.48583 300.18663,256.1819 C 300.02768,255.02383 299.52244,253.69544 299.36349,252.71902 C 298.87528,251.41335 298.87528,250.07929 298.54602,248.92689 C 298.05781,245.46968 296.8827,242.34174 296.24122,238.88454 C 295.57135,235.24567 295.08314,232.11773 294.24297,228.68323 C 293.75476,225.04437 293.11327,221.42822 292.77834,217.97101 C 291.77921,214.68979 291.44995,211.23259 290.62681,207.92866 C 290.47354,206.44133 289.98533,204.95399 289.80934,203.31338 C 289.14515,200.03216 288.49799,196.55225 287.68052,193.27103 C 285.68227,183.37628 283.40018,173.66318 279.76132,163.95009 M 288.32201,159.51647 C 292.95432,162.46843 296.39449,159.67542 298.37004,159.67542 C 298.21108,157.18896 298.69929,153.5728 298.69929,151.11473 C 298.54602,149.62739 296.05956,143.3715 295.7303,142.04312 M 277.30324,182.39986 C 277.45651,179.94178 279.27311,180.58327 279.76132,178.45445 C 280.58446,177.45532 280.76044,175.97366 281.40193,174.82126 C 281.73686,172.99899 281.57791,171.20511 281.24865,169.5645 C 280.76044,167.90118 280.58446,166.26057 279.76132,164.94921 C 279.76132,164.61996 279.09712,162.30948 279.43206,163.13262 C 281.89014,167.56624 284.86481,168.41209 287.68052,170.87017 C 287.68052,167.90118 289.87179,165.74965 287.56699,159.18721 M 299.69842,331.75216 C 301.33903,331.41722 289.14515,328.47094 291.44995,332.26307 C 292.29013,332.41635 293.44253,332.75128 291.62594,335.54429 M 352.23201,261.79063 C 346.28834,263.25526 340.36739,260.94478 335.93377,256.35789 C 334.93464,255.18278 334.27045,254.20636 333.44731,253.05396 C 332.80582,252.05483 332.2949,251.05571 331.80669,250.23824 C 330.65429,247.92776 329.50189,245.62296 328.50277,243.49414 C 328.17351,242.85265 327.86128,242.34174 327.6853,241.67755 C 327.19709,240.52515 326.70888,239.54873 326.19797,238.39633 C 324.88661,235.42166 323.73421,232.62864 322.58181,229.83563 C 322.25255,228.68323 321.58268,227.86009 321.25343,226.86664 C 320.60627,225.3793 320.10103,223.73869 319.45387,222.58629 C 318.96566,221.60987 318.6364,220.45747 318.30146,219.45835 C 317.81325,218.45922 317.484,217.30682 316.97308,216.3304 C 316.63815,215.51294 316.3316,215.178 316.14994,214.33215 C 314.99754,211.38586 313.69186,208.41687 312.86872,205.61818 C 312.38051,204.62473 312.20453,203.97757 311.86959,202.97845 C 311.71632,202.0077 311.2054,201.33784 311.2054,200.52037 C 310.38793,198.54483 309.89972,196.72823 309.25256,194.75269 C 308.56566,191.60771 307.7709,188.32081 306.77178,185.19855 C 306.77178,184.19942 306.10759,183.37628 306.10759,182.55881 C 305.61938,181.58239 305.61938,180.74222 305.13117,179.94178 C 304.30802,176.96711 303.31457,173.84484 302.1565,170.87017 C 301.33903,169.05358 298.87528,160.66887 298.37004,159.18721 M 295.7303,142.04312 C 296.57047,142.04312 299.52244,142.04312 300.3399,141.71386 C 300.18663,140.57849 300.18663,139.09683 299.8517,137.93875 C 299.36349,136.45709 299.03423,136.27544 298.69929,134.81648 C 299.8517,135.7929 301.67396,135.45797 303.15562,134.81648 C 302.97964,132.81823 302.82637,130.68941 301.49231,129.38374 C 300.85082,129.0488 300.85082,128.38461 299.21021,127.38549 C 300.51589,127.38549 303.97877,128.04968 306.10759,127.56147 M 357.81803,203.80159 C 358.97043,204.46578 351.89707,205.77713 345.64686,204.31251 C 341.03158,203.16011 338.39184,200.8326 335.08792,197.88063 C 333.27132,195.57583 331.47744,193.75356 329.9901,191.14221 C 329.16696,189.47889 328.34949,187.83828 327.6853,186.17496 C 327.35037,185.5278 327.01543,185.03959 326.86216,184.3754 C 325.55648,181.40641 324.3984,178.94266 323.07002,176.14964 C 321.76434,172.99899 320.43028,170.54091 319.27788,167.74223 C 318.6364,166.41384 317.97221,165.28415 317.484,163.95009 C 316.14994,161.15708 314.50933,158.699 313.20365,156.21254 C 312.86872,155.23612 312.38051,154.7252 312.05125,153.90774 C 311.56304,153.08459 311.2054,152.11385 310.71719,151.11473 C 310.38793,150.45053 310.053,149.80337 309.56479,149.29246 C 309.56479,148.80992 309.07658,148.47499 308.9233,148.14006 C 308.25911,147.32259 308.07745,146.49945 307.59492,145.83525 C 307.25999,145.32434 307.25999,144.68285 306.6185,144.19464 C 305.77265,142.86626 305.13117,141.55491 304.30802,140.57849 C 304.13204,139.9143 303.80278,139.58504 303.49056,139.09683 C 303.15562,138.58591 301.49231,135.96889 301.18576,135.45797 M 306.92505,106.8069 C 306.6185,105.50122 305.61938,104.50209 304.79623,103.34969 C 304.30802,103.01476 303.64383,102.70253 302.97964,102.52655 C 302.64471,102.52655 302.1565,102.52655 301.82724,102.19729 C 301.67396,101.86236 302.31545,101.37415 302.49143,101.37415 C 303.49056,101.22087 304.30802,100.73267 305.28444,100.55668 C 306.10759,100.22175 306.77178,100.06847 307.43597,99.557557 C 307.92418,99.733539 311.18269,98.734413 311.85256,98.092929 M 300.3399,87.380709 C 301.67396,86.869793 304.79623,88.203853 305.94863,88.692062 C 307.25999,89.202979 308.25911,89.509529 309.41151,90.020445 C 311.05212,90.508655 312.20453,90.996864 314.02112,90.66193 C 314.18007,91.331798 314.35605,91.99599 314.50933,92.813457 C 314.18007,93.789875 313.84514,94.635726 313.35693,95.606468 M 321.1853,83.037917 C 320.36784,83.344467 319.12461,83.435297 318.6364,83.764554 C 315.99666,85.893374 315.82068,88.868044 306.6185,88.868044 M 264.79146,293.08144 C 265.1491,292.08232 266.10281,289.77751 266.10281,288.95437 M 261.48753,185.5278 C 262.79888,183.73392 262.97486,184.3754 264.12727,183.20029 C 264.28622,182.73479 264.61547,182.39986 264.61547,182.0706 C 264.61547,181.89462 264.95041,181.73567 264.95041,181.73567 C 265.59189,180.42999 267.07923,177.45532 267.25521,175.81471 M 297.05868,142.86626 C 302.49143,152.4204 309.89972,167.25969 312.69273,176.79113"
         style="fill:none;stroke:#000000;stroke-width:0.625;stroke-linecap:round;stroke-linejoin:round;stroke-miterlimit:4;stroke-dasharray:none;stroke-opacity:1"
         id="path812" />
      <path
         d="M 255.77094,271.81028 C 256.76439,272.63342 258.58666,272.96835 259.56308,273.45656 M 239.64868,345.59232 C 239.4727,346.40979 238.98449,347.73817 238.64955,348.22638 M 245.89889,356.27616 C 246.87531,356.6338 247.5395,357.27528 248.36265,357.43424 M 222.50459,293.8762 C 223.16878,296.51594 224.80939,298.49148 226.29672,299.30895"
         style="fill:none;stroke:#000000;stroke-width:0.625;stroke-linecap:round;stroke-linejoin:round;stroke-miterlimit:4;stroke-dasharray:none;stroke-opacity:1"
         id="path756" />
    </g>
  </g>
  <g
     transform="matrix(1.362902,0,0,1.362902,-79.19617,-76.85593)"
     id="g1388">
    <path
       d="M 212.69401,403.16375 C 212.96082,217.04248 212.71671,103.08535 212.64859,59.135163 L 61.366161,58.981888 L 61.036901,255.91756 C 60.860921,334.15026 129.04559,402.82882 212.69401,403.16375 z "
       style="fill:#ffffff;fill-opacity:1;stroke:#000000;stroke-width:1.25;stroke-linecap:butt;stroke-linejoin:round;stroke-miterlimit:4;stroke-dasharray:none;stroke-opacity:1"
       id="path699" />
    <path
       d="M 190.53125,72.71875 C 186.05607,73.092225 180.41384,78.315233 178.53125,80.625 C 175.40331,84.258186 163.86616,85.893565 160.25,94.125 C 159.0976,94.125 155.02245,95.281254 154.6875,95.28125 C 152.71196,97.432777 153.34348,96.917798 153.03125,100.375 L 150.875,105.3125 C 150.69902,105.3125 150.69019,105.31834 150.53125,105.5 C 150.37798,106.29476 149.55157,107.15128 150.0625,107.96875 C 150.21577,108.30368 150.21875,108.4375 150.21875,108.4375 C 151.21788,109.5899 152.20673,110.76179 154.6875,111.25 C 158.45693,112.24912 160.59081,113.25027 163.71875,113.5625 C 165.68862,113.89175 167.51564,113.25027 169.15625,113.5625 C 167.02743,115.37909 168.00385,118.83398 169.15625,120.65625 C 170.64359,123.29031 167.5,125.60145 167.5,127.90625 C 167.01179,130.18835 164.72554,130.65415 162.75,131.5 C 161.75087,131.82925 160.09872,132.65922 159.28125,132.8125 C 158.4354,133.81163 158.28423,134.46961 158.4375,135.46875 C 158.94842,136.62115 160.11437,137.08581 160.9375,137.75 C 160.9375,137.75 164.72173,137.08311 164.875,137.90625 C 164.38679,139.56957 166.3476,138.92684 167.5,139.75 C 167.7341,139.85897 168.96159,140.13078 169.65625,139.875 C 169.20042,140.52841 168.79776,141.23562 168.1875,141.71875 C 165.8827,145.32923 161.4051,145.9782 160.09375,150.28125 C 158.43043,151.92186 153.01886,154.23438 151.84375,155.875 C 146.41101,164.10076 150.07636,159.83376 146.4375,167.90625 C 145.46108,171.36345 144.30754,173.17366 145.125,180.09375 C 145.61321,182.22257 146.27946,182.39858 141,183.375 L 133.75,183.375 L 130.28125,183.0625 L 127.8125,180.25 C 126.32517,183.37227 125.52442,185.33903 124.21875,183.1875 C 124.548,181.39362 123.04102,182.23027 121.21875,182.40625 L 120.5625,184.71875 C 119.92101,184.87202 119.57926,185.19928 119.25,185.6875 L 119.9375,186.84375 C 119.9375,187.84287 118.59348,188.14831 118.28125,188.8125 L 115.96875,189.65625 C 115.45783,190.96193 115.46084,191.9458 119.40625,207.9375 C 119.58224,208.09078 125.18639,213.02267 127.15625,209.71875 C 127.49119,208.8956 126.51477,206.77855 127.15625,206.9375 L 125.84375,197.53125 C 126.99615,197.6902 129.7851,201.00026 130.9375,201.3125 C 133.75322,201.97669 137.71581,201.01178 140.84375,201.5 C 141.8145,200.83581 142.79304,198.38294 143.28125,197.71875 C 144.28038,196.07814 143.625,197.70199 143.625,198.03125 C 141.64946,204.46312 147.89718,199.53125 150.53125,199.53125 C 151.01946,199.86619 151.22173,200.35554 151.375,200.84375 L 151.21875,205.59375 L 133.75,210.21875 C 133.90895,211.34845 134.05953,212.36706 133.90625,213.03125 C 132.90713,217.3116 135.07134,227.16802 138.6875,224.375 C 139.19274,224.375 139.83581,224.03125 140.5,224.03125 C 144.60436,224.54217 147.89535,222.92599 151.6875,222.75 C 151.35256,227.18362 143.14743,234.26766 142.8125,238.21875 C 138.02124,240.69954 137.84781,243.82316 132.75,246.28125 C 130.77446,247.92186 130.14061,250.89063 128.5,252.53125 C 127.16594,253.85963 125.19517,254.19434 124.21875,255.5 C 123.88381,255.5 123.55369,255.85259 123.21875,256.1875 C 121.91308,256.49405 120.57017,257.13767 119.59375,258.625 C 119.59375,260.26561 119.26449,262.11208 119.59375,263.59375 C 122.0575,267.2099 128.47376,257.1619 121.21875,266.875 C 118.91394,268.53832 118.27355,270.1719 115.96875,271.8125 C 111.50674,274.12298 110.36908,281.37889 113.34375,285.8125 C 115.13764,288.12298 114.30543,287.62886 115.96875,288.78125 C 115.29888,291.08605 117.27243,292.72346 116.9375,294.875 C 116.45497,295.20993 117.13592,296.02446 116.625,298 C 116.95426,299.30568 116.94632,300.30484 117.28125,301.28125 C 116.94632,301.28125 119.60257,305.88382 119.9375,306.21875 C 121.42484,309.01176 123.37118,311.99619 125.5,314.125 C 125.83494,314.96518 125.85825,315.29603 126.1875,315.9375 C 127.83379,319.24143 128.33608,327.80373 129.3125,330.75 C 129.49416,333.07751 129.14475,332.89064 128.96875,334.53125 C 126.65827,333.55483 119.93365,334.54007 118.78125,334.875 C 118.11706,335.38592 111.52827,337.53125 111.375,337.53125 C 108.89421,337.53125 106.89855,336.85824 104.59375,337.1875 C 105.5872,339.98052 107.90244,340.81138 110.03125,342.78125 C 111.35964,344.09261 112.81635,345.25684 113.96875,346.5625 C 116.93774,349.53717 124.85145,348.03511 127.15625,349.1875 C 127.82612,349.52243 128.48323,349.54573 128.8125,349.875 C 130.78805,350.54487 132.09461,350.87616 133.09375,352.1875 C 134.24615,353.82811 136.2226,353.14831 137.375,353.8125 C 139.67981,353.8125 141.14124,355.48351 143.46875,356.125 C 144.11591,356.45994 144.94134,356.45111 146.09375,355.78125 C 146.75794,354.81051 146.42868,353.15511 146.09375,351.84375 C 145.7872,350.86733 146.75793,349.53038 146.09375,348.53125 L 148.09375,346.25 C 148.42301,344.60939 148.71874,342.78237 148.71875,340.8125 C 148.71875,340.8125 148.71848,340.83494 148.40625,340.5 L 148.09375,339.1875 C 147.09463,338.18837 144.4504,337.03038 142.96875,336.03125 C 142.96875,331.59763 142.14743,327.13858 141.8125,323.1875 C 141.8125,321.54689 141.5,320.21759 141.5,318.90625 C 141.14235,318.24206 141.15625,317.60169 141.15625,316.9375 C 140.66804,315.93837 140.66391,316.27245 139.6875,315.9375 L 141.15625,313.96875 C 141.5139,313.96875 141.50595,313.15894 141.8125,313 C 143.47581,308.87861 142.32341,304.60166 141.8125,300.65625 C 140.84175,297.5283 137.87114,295.50296 136.71875,292.375 L 134.75,287.4375 L 132.59375,284 C 133.10467,284.15328 134.23439,280.86794 135.875,282.53125 C 138.33875,281.53212 141.8125,278.74321 141.8125,280.71875 C 141.8125,280.71875 145.78719,280.87114 146.09375,279.71875 C 146.75794,279.40652 147.42956,279.71847 148.09375,279.40625 C 150.39856,278.07787 154.17277,279.69903 156.8125,279.875 C 157.9649,278.54662 160.09489,281.35554 161.40625,281.84375 C 163.04686,282.17868 165.04094,283.35058 166.375,284.65625 C 166.19334,286.80777 167.52629,290.08696 168.34375,292.0625 C 168.34375,292.0625 168.65626,292.38383 168.65625,292.71875 C 169.14446,293.71788 169.14831,295.50384 169.8125,296.65625 C 170.63565,297.99031 171.30753,298.49502 172.125,299.3125 C 172.125,300.64656 172.1368,301.93837 172.625,302.9375 C 172.625,304.91304 173.77062,306.2344 174.59375,307.875 C 175.10467,309.20338 175.90653,310.02447 176.21875,312 C 177.21787,312.99345 177.5625,314.47289 177.5625,315.9375 C 177.23324,318.57724 177.88949,320.88269 178.21875,323.1875 C 178.53098,324.52156 178.69929,325.48708 179.1875,326.96875 C 179.1875,327.45696 179.875,327.79601 179.875,328.4375 L 180.1875,329.125 C 180.1875,337.19748 181.8467,345.92366 178.71875,352.84375 C 177.56635,355.12585 177.23236,357.43699 176.5625,360.09375 C 174.92189,361.91602 173.75498,363.87291 172.9375,364.71875 C 172.11436,366.02443 170.31135,367.64561 169,368.46875 C 168.18253,366.82814 166.36531,367.83493 165.03125,367.5 C 163.39064,367.14236 162.74913,368.79887 161.75,369.46875 C 161.42074,369.46875 161.40624,369.81249 161.40625,369.8125 C 161.40625,370.14743 161.40624,370.13094 161.40625,370.4375 C 163.71105,372.92396 158.60554,370.12499 159.09375,370.125 C 159.09375,369.79007 159.09375,369.81249 159.09375,369.8125 C 158.27629,369.8125 157.94544,369.81249 157.28125,369.8125 C 154.66422,371.12385 151.70223,370.78124 149.0625,370.78125 C 147.75115,370.78125 152.19902,374.40626 152.375,374.40625 L 152.6875,374.71875 L 155.96875,377.03125 L 158.28125,378.53125 C 161.40919,380.17186 164.19607,381.48324 167.5,381.8125 C 170.9572,382.12473 174.57107,382.14359 177.875,380.65625 C 181.49115,378.70909 185.95202,381.16506 189.5625,381.5 C 190.89656,382.14149 192.70314,382.79801 194.34375,382.46875 C 194.67869,382.13382 194.67956,381.82925 195.34375,381.5 L 195,378.03125 C 194.67074,378.51946 197.65152,373.43249 195.5,370.96875 L 195,369.125 L 191.875,367.5 C 191.38679,364.53101 190.23439,361.38973 191.875,358.75 C 191.875,357.77358 191.875,357.12412 191.875,356.125 C 192.69246,354.81933 193.04304,353.15511 193.53125,351.84375 C 194.04216,350.53807 194.35255,349.21192 194.6875,347.90625 C 195.68662,344.26739 196.8399,340.63787 195.6875,335.875 L 196.34375,336.21875 C 198.47257,333.0908 197.64263,333.90536 198.3125,332.90625 C 199.28324,330.93638 200.29007,328.79101 200.625,326.96875 C 201.60142,323.17661 201.26649,320.20694 200.625,316.4375 C 199.29094,313.79776 199.46403,314.46899 197.3125,311.5 L 196.65625,311.1875 C 197.98464,309.21195 197.64176,304.40039 197.3125,300.9375 C 198.61818,302.0899 199.46108,302.09461 200.4375,303.09375 C 201.10169,303.58195 201.91507,303.60257 202.25,303.9375 C 203.06747,304.26676 203.42101,303.59872 204.0625,302.78125 C 206.39001,297.3485 205.71875,290.7532 205.71875,284.65625 C 204.71962,283.01564 205.06162,281.04712 204.0625,279.71875 L 201.40625,277.71875 L 202.09375,273.46875 C 204.57453,269.02946 203.90712,265.56458 204.90625,261.4375 C 205.2128,259.79689 204.90625,258.62909 204.90625,256.8125 C 203.57219,254.83695 204.57044,251.9045 203.90625,249.90625 C 202.90713,246.62502 204.22757,243.17893 204.5625,239.875 C 203.89831,237.41125 202.89236,234.91007 203.25,232.78125 C 202.89236,231.47557 203.26362,229.99614 202.59375,228.84375 C 202.59375,227.35641 202.25,226.01562 202.25,224.375 C 201.91507,224.04006 201.93751,223.74118 201.9375,223.40625 L 196.65625,213.375 C 196.65625,213.04006 196.34402,212.53125 196.65625,212.53125 C 197.6497,209.07404 197.65737,206.10848 195.6875,203.46875 C 194.5351,202.65128 194.86051,202.48027 194.53125,202.65625 C 195.50199,200.35145 195.67982,198.20609 196.65625,196.71875 C 197.6497,195.39037 198.31052,194.07838 199.28125,192.75 C 199.28125,191.77358 199.95199,191.13267 200.28125,190.15625 C 201.25767,187.18158 204.05456,183.7072 204.71875,180.25 C 205.54189,178.60939 205.73055,176.94517 206.21875,175.96875 C 206.70696,173.99321 207.20227,171.85639 207.84375,170.0625 C 209.50707,163.45465 206.69246,157.18188 205.875,150.75 C 205.54006,149.95525 204.90041,149.44814 204.71875,148.625 C 203.74801,146.49618 201.91916,144.82514 200.4375,143.03125 C 199.76763,142.36706 199.29801,141.70696 198.96875,141.21875 C 196.35173,137.75587 195.49789,140.55862 196.34375,136.125 C 195.67955,134.46168 195.17396,131.18749 192.6875,131.1875 C 192.19929,131.03423 192.21874,130.35467 192.21875,129.84375 C 193.37116,128.5324 192.89176,126.58109 192.5625,125.09375 C 192.38652,124.75882 192.21577,124.74703 192.0625,124.59375 C 192.0625,123.44135 192.2264,122.10726 191.25,121.3125 L 190.5625,121.46875 C 190.92014,119.4932 191.89744,117.18862 191.5625,115.21875 L 195.34375,114.53125 L 195.96875,113.25 L 196.96875,110.9375 L 197.3125,108.28125 C 196.97757,107.94632 195,106.15625 195,106.15625 C 194.84672,104.66891 197.98436,99.385887 196.34375,95.59375 C 196.65597,92.289822 197.98436,89.034197 196.34375,85.90625 C 195.34462,83.601448 195.66986,80.608485 195,77.96875 C 194.67074,76.481415 193.19246,74.356661 192.375,72.875 C 191.79809,72.708242 191.17056,72.665396 190.53125,72.71875 z M 114.65625,108.375 C 113.93884,108.49705 113.2637,108.68737 112.6875,108.53125 C 110.22375,109.17273 108.38179,110.46169 106.40625,112.125 C 106.40625,112.45426 106.40625,112.13949 106.40625,112.46875 C 106.40625,112.46875 106.42598,112.77331 106.25,113.4375 C 105.0976,113.77243 104.78919,113.76151 104.125,113.9375 C 100.17391,116.06632 103.62707,111.64042 99.5,119.53125 L 85.65625,124.46875 C 79.400358,128.0849 80.067467,128.90625 79.25,128.90625 C 74.305459,132.36345 71.670986,135.16597 69.03125,139.78125 C 67.390642,141.93277 66.246181,144.07842 68.375,146.03125 C 71.014738,144.39064 72.664221,142.07314 75.28125,141.25 C 77.586055,139.94431 79.069324,139.43338 80.375,137.96875 C 85.00731,136.30542 88.78573,133.87385 93.90625,132.5625 C 96.188343,132.23324 98.186651,132.54801 100.46875,132.21875 C 101.80281,131.54889 103.45314,131.54503 105.09375,131.0625 L 106.09375,137.96875 L 107.71875,147.84375 L 111.6875,171.40625 L 113,171.75 L 116.65625,167.625 C 118.12088,166.98351 118.9334,167.12203 120.75,166.96875 L 119.40625,148.1875 L 120.0625,145.25 C 120.88564,141.27621 119.74206,132.36231 120.40625,127.59375 C 120.40625,127.2645 121.21875,127.6105 121.21875,127.28125 L 123.875,124.46875 C 125.36234,121.98796 125.01675,121.51561 124.6875,119.875 C 124.6875,118.87588 124.36051,118.22669 124.03125,117.5625 C 123.71903,116.22844 123.39175,115.25794 123.0625,114.59375 C 122.72756,114.26449 122.70426,113.9375 122.375,113.9375 C 121.39859,113.2733 120.40538,112.44842 119.40625,111.9375 C 118.91804,111.78423 118.75794,111.6504 118.09375,111.46875 C 117.91209,110.14036 117.13889,109.50767 116.78125,108.53125 C 116.12841,108.19915 115.37366,108.25295 114.65625,108.375 z M 60.46875,147.46875 L 60.625,256 C 60.800984,293.5467 75.619501,328.62248 101.8125,354.96875 C 101.96577,352.01678 100.13949,346.73348 100.46875,344.09375 C 100.13949,336.19726 104.4375,330.25701 104.4375,322.03125 C 104.10824,321.54304 103.4443,321.55095 101.46875,318.09375 C 100.31635,312.48501 94.726418,316.76561 93.75,315.125 C 96.872272,309.69224 103.4375,301.78447 103.4375,298.96875 C 103.4375,298.96876 102.78622,296.68452 101.96875,296.53125 C 93.254782,295.37886 85.985478,293.88592 82.375,293.375 C 81.040937,293.06847 82.683651,294.05507 81.53125,292.0625 C 84.835181,289.93369 86.145333,289.44544 86.65625,288.78125 C 87.961928,287.4472 88.621151,286.14855 87.46875,283.84375 C 84.987968,281.37999 86.167767,279.20609 86.34375,277.71875 C 87.342875,276.41308 88.983516,276.75977 89.625,274.9375 L 93.5625,272.78125 L 93.5625,272.15625 L 91.59375,270 C 93.234358,271.15241 93.875874,269.1875 94.875,269.1875 C 96.844867,267.87615 98.202265,269.03237 98.84375,267.0625 C 98.202265,264.75203 97.84375,263.06362 97.84375,261.09375 C 97.537197,259.7824 96.203111,258.79574 94.5625,259.125 C 93.563377,259.45992 89.121151,263.0878 87.96875,262.78125 C 86.969623,262.11705 90.28125,252.21875 90.28125,252.21875 L 88.3125,251.5625 C 87.336085,248.1053 83.692467,252.87323 82.875,247.59375 C 83.692469,247.44048 84.852566,242.18044 85.1875,243.84375 L 86.96875,245.8125 C 87.632945,245.81251 88.319051,245.61321 89.3125,245.125 C 89.624725,244.79574 89.625,244.46875 89.625,244.46875 L 90.9375,242.84375 L 90.28125,241.53125 C 90.281249,241.53124 89.75,241.52243 89.75,241.1875 C 89.284498,240.85255 88.46875,240.5392 88.46875,239.875 C 88.111106,237.89946 90.109633,235.57227 88.78125,233.75 C 87.804831,233.1085 87.804558,231.95521 88.46875,229.46875 L 92.59375,230 L 94.21875,230.96875 L 96.84375,229.3125 C 97.178688,228.6483 97.202266,228.3378 97.84375,228.03125 C 98.201388,228.03125 98.19345,227.6875 98.5,227.6875 C 98.988213,226.68837 100.48551,226.18862 100.15625,224.21875 C 100.15625,222.39648 98.996151,221.10936 97.84375,219.46875 L 99.65625,221.09375 L 100.46875,221.09375 C 100.64473,220.42957 101.95993,219.76831 101.625,217.96875 C 101.31845,217.30456 101.33494,217.30368 101,216.96875 L 96.6875,214.03125 L 96.03125,212.375 L 95.875,212.375 L 93.0625,209.71875 L 91.4375,209.40625 C 89.132701,207.74293 89.597569,200.82877 87.46875,206.4375 C 84.987968,201.31698 85.842002,201.01176 83.84375,198.21875 C 84.025412,197.37289 84.352565,196.54189 84.6875,195.71875 C 83.841647,195.56547 67.557484,191.10554 74.8125,191.59375 C 79.092845,190.77061 72.14714,188.798 81.21875,188.46875 C 81.860236,186.98141 82.389766,178.78125 83.03125,178.78125 L 83.6875,179.4375 L 85.5,182.875 L 87.3125,181.0625 C 88.107261,180.08609 88.122025,170.05665 87.96875,169.875 C 86.481414,167.90513 86.964628,168.06635 85.5,169.21875 C 86.811351,166.27247 81.376778,168.56545 86.65625,165.4375 C 86.656252,164.10912 86.976418,163.45966 86,162.8125 C 84.518344,161.99504 83.012635,162.80098 81.21875,162.625 C 80.707835,160.83112 80.892711,161.80369 78.40625,161.46875 C 78.406252,160.82727 78.587909,159.17781 78.40625,157.84375 C 77.918043,156.53807 77.777401,155.53919 76.625,154.875 C 75.784827,154.54006 71.007941,155.40128 70.34375,156.21875 C 69.520605,156.21875 69.857368,156.7149 69.1875,155.5625 C 74.955183,150.12974 81.856679,156.04298 70.65625,149.96875 L 64.90625,149.28125 C 62.930704,148.46377 61.445168,148.62116 60.46875,147.46875 z M 130.28125,227.84375 C 128.81663,228.17868 126.34261,228.49416 125.03125,228.3125 L 125.84375,235.90625 L 126.84375,236.71875 C 127.82017,236.71874 129.48352,236.88267 130.125,235.90625 C 130.7892,235.90624 131.125,235.58494 131.125,235.25 C 131.125,233.76267 130.45426,231.97554 130.125,230 C 130.125,229.48908 130.28125,228.66689 130.28125,227.84375 z "
       style="fill:#000000;fill-opacity:1;fill-rule:nonzero;stroke-width:0;stroke-linecap:butt;stroke-linejoin:round;stroke-miterlimit:4"
       id="path711" />
    <g
       id="g1357">
      <path
         d="M 184.47536,371.44471 C 185.2985,371.44471 185.96269,369.8041 186.93911,369.1399 C 187.26837,368.80497 187.6033,368.47571 187.6033,368.14078 C 188.26749,363.86043 186.26924,359.73904 187.6033,355.4814 C 188.26749,354.81721 188.26749,353.81808 188.90898,352.84166 C 188.90898,352.17747 188.57972,351.51328 188.90898,350.53686 C 188.90898,349.86699 189.39719,348.87354 189.39719,348.22638"
         style="fill:none;stroke:#ffffff;stroke-width:0.625;stroke-linecap:butt;stroke-linejoin:round;stroke-miterlimit:4;stroke-dasharray:none"
         id="path836" />
      <path
         d="M 174.25134,198.70378 C 173.27493,198.36884 172.61073,198.70378 171.96925,198.70378 C 171.1234,198.36884 166.5365,196.06404 166.36052,195.39985 C 167.02471,194.0885 168.33039,193.4243 169.48279,192.2719 C 171.61161,191.1195 172.61073,190.14308 173.60986,188.47977 C 173.27493,188.14483 173.76314,186.35095 173.43388,186.35095 C 175.73868,179.91907 176.55615,176.66056 178.02077,173.75401 C 178.50898,172.75489 178.7985,172.15882 179.46269,170.84746 M 149.72734,205.17539 C 152.56577,206.04395 155.31337,203.31338 157.46489,202.16098 C 157.9531,201.985 158.77625,202.80246 159.28716,202.47321 C 161.08105,201.82605 162.23345,201.65006 164.38498,200.18544 C 164.38498,200.00945 164.20899,199.03303 164.38498,198.85705 C 164.71991,198.52212 165.36139,198.03391 165.87231,197.70465 C 166.36052,197.21644 166.84873,196.88151 167.17799,196.3933 M 126.17408,340.48883 C 125.18064,338.82551 124.99898,337.60499 124.69243,336.0325 L 127.3719,333.4836 M 143.67582,335.567 C 141.45617,336.42988 141.80814,338.67224 142.80726,339.97792 C 142.478,340.64211 141.14394,341.13032 141.14394,341.80019 L 140.01425,343.95171 C 137.22124,343.95171 132.42998,340.97704 131.27757,340.97704 C 131.27757,341.31198 132.2767,344.43424 132.58325,344.92245"
         style="fill:none;stroke:#ffffff;stroke-width:0.625;stroke-linecap:round;stroke-linejoin:round;stroke-miterlimit:4;stroke-dasharray:none"
         id="path832" />
      <path
         d="M 189.24391,103.52568 C 189.24391,100.86323 191.23649,95.430485 191.23649,93.301666 C 191.23649,91.331798 191.23649,93.789875 189.9081,92.637474 C 185.96269,85.893374 190.54959,90.996864 191.54871,89.997738 C 190.90723,85.564117 193.03605,84.076781 193.03605,80.284644 L 191.88365,76.980716 L 189.99893,72.189453 M 196.02775,106.00646 L 195.00592,106.14271 L 194.03517,105.98943 L 186.4509,102.37328 C 184.47536,101.22087 183.14697,100.86323 181.83562,100.22175 C 178.21946,99.557557 174.91554,99.557557 171.61161,98.246204 C 170.64087,97.916947 169.15353,97.582012 168.33039,97.247078 C 167.17799,96.582886 162.74437,95.430485 161.59196,94.789001 L 159.34961,93.301666 M 192.47972,116.23047 L 191.5033,114.52174 C 189.53343,113.19336 186.89369,113.52829 184.89544,112.37589 C 183.10156,111.39947 180.46182,110.7296 177.99807,110.06541 C 176.51641,108.75973 174.20593,109.07196 172.90025,108.09554 C 169.59633,106.45493 166.13912,105.29685 163.01118,103.8152 C 161.18891,102.81607 159.5483,102.17459 157.57843,101.68638 C 156.24437,100.68725 153.93957,100.68725 152.78717,100.68725 L 152.07756,100.46585"
         style="fill:none;stroke:#ffffff;stroke-width:0.625;stroke-linecap:butt;stroke-linejoin:round;stroke-miterlimit:4;stroke-dasharray:none"
         id="path828" />
      <path
         d="M 144.40246,178.25576 C 145.60027,177.50073 146.08848,176.63785 147.42254,174.66231 C 147.42254,178.27846 150.39154,179.27759 151.36795,179.91907 C 153.3435,176.79113 154.51861,179.43086 154.67188,174.82126 C 154.67188,174.66231 154.67188,174.48633 154.67188,174.48633 C 155.82428,175.97366 155.00682,177.76755 156.64743,179.09593 L 159.59371,180.25401 C 159.7697,180.25401 159.92865,180.25401 160.10463,180.09506 L 160.43956,179.58414 C 162.23345,177.76755 161.25703,178.12519 162.38672,174.82126 C 163.23257,175.792 162.38672,177.61427 163.72078,178.6134 C 164.53825,179.09593 165.36139,179.27759 166.36052,179.74309 L 168.00113,178.76667 C 169.64174,177.94353 168.66532,174.33305 170.45921,174.33305 L 171.45833,178.12519 C 172.45746,178.6134 172.61073,180.25401 173.60986,179.74309 C 174.73955,178.76667 177.04436,176.95008 177.402,174.66231 M 179.19588,162.1335 C 177.71422,173.33393 180.19501,169.71777 181.50636,173.66318 C 181.68234,174.33305 183.32295,172.99899 184.62863,170.87017 C 184.81029,170.38196 187.44435,166.92476 188.26749,166.92476 C 188.42077,166.92476 188.57972,166.92476 188.57972,166.92476 C 187.44435,168.38939 186.93911,171.51733 188.42077,173.82213 L 191.39544,172.02257 C 193.03605,170.87017 192.8771,169.20685 194.03517,168.23044 C 194.52338,168.71864 193.85351,170.87017 194.18845,172.51078 C 194.67666,174.33305 195.98233,175.63873 196.33998,175.97366 C 197.8046,175.63873 198.957,174.82126 199.77447,173.82213 C 200.10941,172.66973 200.62032,171.51733 201.59674,171.02912 C 201.926,170.69419 201.59674,172.66973 201.59674,174.48633 C 201.10853,178.76667 204.21377,178.12519 206.54128,179.60685 M 136.22211,315.94212 C 136.22211,316.94125 138.7256,318.16177 137.86272,320.51199 M 140.59329,315.56745 C 140.25835,315.56745 136.37539,315.94212 136.22211,315.94212 C 134.73478,315.60719 133.75836,315.11898 132.91819,313.63732 L 132.58325,313.30239 C 132.42998,313.14911 131.1243,312.32597 130.61338,312.32597 C 130.61338,311.81505 130.27845,311.5085 130.12517,311.32684 M 202.70373,277.77665 L 198.957,277.91289 L 197.98059,274.93822 L 196.33998,272.7867 M 191.39544,274.93822 C 191.0605,275.91464 192.05963,278.55438 192.37186,279.70678 C 192.2129,278.4011 193.70024,285.31551 193.70024,283.83385 C 193.70024,284.98625 193.03605,285.65044 192.8771,286.31463 C 192.37186,286.31463 192.37186,285.98538 192.37186,285.98538 C 191.0605,286.64957 190.06138,287.62599 189.09064,288.93166 C 188.09151,290.26005 189.09064,292.05961 189.09064,292.89978 C 191.39544,295.0286 196.89631,300.23995 198.2474,302.59017 M 153.83171,280.19499 C 154.67188,271.79325 154.67188,269.32949 154.67188,264.05002 L 153.67276,254.51859 C 153.83171,254.51859 153.18455,251.54392 153.18455,251.033 C 153.18455,251.63474 153.67276,242.92078 153.67276,235.73388 M 193.52426,274.60897 C 194.67666,274.27403 195.82906,273.45656 196.33998,272.63342 C 195.67578,270.65788 193.70024,267.53561 192.37186,266.22425 M 174.42733,249.4151 C 174.42733,251.90156 189.24391,276.57883 189.39719,279.06529 C 189.75483,280.04171 191.39544,283.34564 190.73125,284.00983 L 187.11509,282.85743 C 185.78103,283.49892 184.62863,283.83385 182.98802,283.49892 L 167.17799,283.83385 M 163.05659,232.96358 C 168.66532,245.2937 168.66532,250.90243 169.15353,261.43299 C 169.30681,264.23168 169.35222,283.07883 165.93476,284.25394 M 164.16358,283.58974 C 164.0103,283.58974 163.23257,280.04171 163.05659,279.88276 C 163.05659,279.21857 158.28804,279.06529 158.10638,278.21944 C 157.62385,276.42556 156.97668,243.82907 158.10638,246.77536 C 158.28804,241.83082 157.62385,233.75834 157.79983,228.99546 M 189.39719,270.32862 C 186.93911,264.07273 189.24391,268.35307 183.81116,258.63998 C 181.17143,255.02383 179.37754,252.20811 177.22601,248.26269 C 176.89108,246.46881 165.53738,231.30026 164.05004,229.17144 C 163.05659,227.83738 158.8614,221.56446 158.53214,220.71861 M 163.72078,219.61162 C 164.20899,220.61075 168.48934,226.86664 169.48279,227.53083 C 171.45833,230.47712 172.78672,233.60506 174.58628,236.57406 C 175.0972,237.22122 175.73868,238.37362 176.55615,238.70288 L 176.73781,238.88454 C 178.70767,240.03694 179.53082,242.34174 181.01815,243.98235 C 181.17143,244.62383 181.99457,245.62296 182.49981,246.28715 C 184.32208,249.26182 185.45177,252.87798 187.26837,256.00024 C 188.42077,258.15177 191.88365,263.43124 192.2129,265.895 L 189.9081,267.0474"
         style="fill:none;stroke:#ffffff;stroke-width:0.625;stroke-linecap:round;stroke-linejoin:round;stroke-miterlimit:4;stroke-dasharray:none"
         id="path824" />
      <path
         d="M 189.57317,270.32862 C 189.9081,271.81028 190.73125,274.45001 191.70199,274.78495"
         style="fill:none;stroke:#ffffff;stroke-width:0.625;stroke-linecap:round;stroke-linejoin:round;stroke-miterlimit:4"
         id="path703" />
      <path
         d="M 162.89764,375.72505 C 165.53738,376.38924 170.30593,377.36566 172.94567,377.03641 C 173.27493,376.87745 173.27493,376.87745 173.27493,376.5482 C 174.91554,377.03641 176.89108,376.87745 178.53169,376.87745 C 181.50636,376.87745 184.47536,375.72505 186.93911,376.87745 C 188.26749,376.87745 188.90898,376.87745 189.9081,376.5482 C 192.70111,375.06086 194.92076,372.04645 195.91989,369.40672 M 170.64087,370.44558 C 170.97012,372.1089 172.12253,372.75606 173.27493,373.75519 L 173.27493,374.08444 C 174.25134,374.41938 175.91466,374.41938 177.22601,374.08444 C 180.52994,374.72593 183.81116,374.08444 186.93911,373.75519 L 190.24304,370.78051 C 191.70199,370.13903 192.57055,368.54384 192.57055,367.0565 M 131.27757,340.97704 C 131.1243,336.6967 130.6588,334.68141 129.08063,333.79015 M 121.69505,265.04915 L 124.8457,262.58539 C 126.17408,263.74347 129.14876,267.0474 130.61338,268.1998 C 133.4291,269.99368 132.42998,271.32774 133.75836,274.27403 C 134.73478,275.60241 138.016,279.39455 138.35093,279.70678 C 141.65486,280.52992 143.29547,281.6142 145.78193,280.04171 L 148.97232,258.63998 M 140.34918,183.37628 C 140.70115,180.98064 139.01512,189.29723 139.01512,189.47889 L 139.01512,192.42518 M 138.35093,182.82562 C 138.10683,180.67409 135.0243,189.87627 129.14876,190.29636 C 130.12517,188.65575 129.50072,188.96798 128.83653,185.66405 M 123.89199,184.44352 L 127.86011,207.39504 M 144.5387,181.8265 C 144.5387,181.8265 148.01861,197.99417 150.45966,200.47495 M 136.37539,208.61556 C 137.22124,209.60901 139.35006,214.17888 140.16753,214.17888 C 143.29547,219.77057 140.14482,217.2387 139.17408,224.31206"
         style="fill:none;stroke:#ffffff;stroke-width:0.625;stroke-linecap:round;stroke-linejoin:round;stroke-miterlimit:4;stroke-dasharray:none"
         id="path840" />
      <path
         d="M 121.18981,128.1178 L 117.23872,126.5226 L 113.33872,126.40907 C 112.67453,126.56802 109.05838,127.8964 107.54833,128.71387 L 105.09026,130.66671 L 103.91515,132.30732"
         style="fill:none;stroke:#ffffff;stroke-width:0.625;stroke-linecap:butt;stroke-linejoin:round;stroke-miterlimit:4;stroke-dasharray:none"
         id="path844" />
      <path
         d="M 195.78364,201.84875 L 190.39631,209.23434 C 189.24391,210.72167 185.45177,212.02735 182.83474,213.02647 C 178.21946,214.66708 175.40375,217.4601 173.60986,217.4601 C 167.51292,217.79503 158.61729,221.42822 152.1911,221.74044 M 201.63648,176.2575 L 199.28626,183.04702 L 197.31639,185.01689 L 195.00592,193.27103 L 193.52426,194.42343 L 189.57317,202.16098 C 187.11509,205.4422 185.2985,206.44133 184.62863,207.747 C 183.32295,210.38674 183.74304,210.65355 178.62252,213.93477 C 178.17973,214.22429 175.73868,211.87407 175.40375,212.02735 C 172.28148,212.8732 167.51292,215.33128 164.05004,216.48368 C 163.23257,216.64263 161.41598,216.3304 160.74611,216.48368 C 159.7697,216.81861 158.95223,217.97101 157.46489,218.6125 C 155.97756,219.12341 154.00769,221.25223 152.1911,221.74044 L 144.15835,222.71686 M 193.36531,194.57671 L 190.54959,195.90509"
         style="fill:none;stroke:#ffffff;stroke-width:0.625;stroke-linecap:round;stroke-linejoin:round;stroke-miterlimit:4;stroke-dasharray:none"
         id="path848" />
      <path
         d="M 117.61907,122.44095 C 115.97846,122.77588 113.82693,123.44007 112.51558,124.10426 C 110.523,124.74575 108.39418,124.74575 106.24266,125.08068 L 104.77803,125.89815 C 104.26711,126.23308 103.7789,126.40907 103.11471,126.40907 C 102.6265,126.23308 102.29157,126.23308 101.62738,126.23308 C 100.14572,126.89728 98.346156,127.56147 96.682839,128.20863 C 96.041355,128.53789 95.553145,128.87282 94.888954,129.20208 C 94.224762,129.20208 93.889828,129.53701 93.248343,129.53701 C 91.426074,130.02522 89.297254,130.51343 87.633937,131.51256 C 84.511668,132.00077 82.536124,133.97063 80.231322,135.45797 C 78.590711,137.09858 76.280233,138.0977 73.975431,138.91517 C 72.82303,140.40251 72.005563,141.71386 70.671503,142.86626 C 69.695084,143.53045 69.365827,145.54573 68.366701,146.03394 C 66.237882,148.18547 66.550108,141.88984 67.878492,139.89159 C 68.366701,139.25011 68.542683,138.58591 69.184168,137.92172 C 71.494646,134.30557 75.127832,131.02435 78.590711,128.53789 C 78.897262,128.53789 79.078921,128.38461 79.254903,128.20863 L 84.176734,125.08068 L 84.999877,124.10426 L 98.834366,119.15973 L 101.80904,114.72611 L 103.62563,113.72698 C 103.7789,113.72698 103.93786,113.551 103.93786,113.39205 C 105.75445,113.23877 107.54833,112.72785 109.21165,111.91039 C 112.51558,111.91039 116.13173,109.59991 119.41295,111.24052 C 120.74134,111.72873 121.56448,112.57458 122.71688,112.88113 C 122.87016,113.06279 122.87016,113.39205 123.20509,113.39205 C 123.86928,114.39117 124.20422,115.52086 124.35749,116.67327 C 124.8457,117.51912 125.02168,118.1606 125.18064,119.15973 C 125.18064,120.80034 125.69155,122.77588 124.53347,123.95099 C 123.86928,124.92173 122.56361,124.10426 121.56448,124.10426 C 120.41208,123.59335 119.10073,123.95099 118.28326,123.10514 C 117.61907,122.77588 117.61907,121.95274 117.43741,121.13527 C 118.10728,118.98374 117.61907,116.67327 117.28413,114.39117 C 116.9492,113.551 116.9492,112.88113 116.61994,112.08637 L 116.2623,110.66716"
         style="fill:none;stroke:#ffffff;stroke-width:0.625;stroke-linecap:butt;stroke-linejoin:round;stroke-miterlimit:4;stroke-dasharray:none"
         id="path852" />
      <path
         d="M 116.28501,143.04224 L 116.28501,141.88984 L 116.28501,143.04224 z M 86.969745,205.95312 L 87.480662,217.30682 L 98.124759,213.42385"
         style="fill:none;stroke:#ffffff;stroke-width:0.625;stroke-linecap:butt;stroke-linejoin:round;stroke-miterlimit:4"
         id="path860" />
      <path
         d="M 88.792015,261.72251 L 79.56713,266.22425 L 79.56713,262.25614 L 78.897262,261.61465 L 73.975431,261.61465 L 67.543558,253.05396 C 67.390283,252.71902 70.518228,252.05483 69.854036,252.05483 C 73.464514,251.56662 81.338308,249.39239 84.795511,249.39239"
         style="fill:none;stroke:#ffffff;stroke-width:0.625;stroke-linecap:round;stroke-linejoin:round;stroke-miterlimit:4;stroke-dasharray:none"
         id="path864" />
      <path
         d="M 89.143979,230.74393 C 89.143979,229.10332 88.633063,227.17319 87.633937,226.19677 L 82.536124,226.19677 L 81.536998,223.0745 L 84.023459,219.12341 L 82.047914,210.05748 L 83.359267,206.10639 M 97.284585,213.42385 L 88.792015,228.32559"
         style="fill:none;stroke:#ffffff;stroke-width:0.625;stroke-linecap:butt;stroke-linejoin:round;stroke-miterlimit:4;stroke-dasharray:none"
         id="path868" />
      <path
         d="M 85.465379,166.99288 L 80.140492,163.95009 L 79.186781,167.43568 L 77.211236,167.43568 L 77.699446,174.53174 L 76.058836,177.32475 L 75.241369,179.11864 L 83.132193,181.11689"
         style="fill:none;stroke:#ffffff;stroke-width:0.625;stroke-linecap:round;stroke-linejoin:round;stroke-miterlimit:4;stroke-dasharray:none"
         id="path872" />
      <path
         d="M 79.408178,266.37753 C 78.409052,267.35395 76.927394,269.84041 75.950975,270.81683 L 71.159712,273.9391 L 78.590711,277.08975 C 80.049662,277.08975 86.328261,276.86835 87.304679,277.35656 L 82.047914,282.03429 L 81.536998,282.5225 L 68.695958,275.27316 L 73.464514,287.62599 L 87.457954,290.1976"
         style="fill:none;stroke:#ffffff;stroke-width:0.625;stroke-linecap:butt;stroke-linejoin:round;stroke-miterlimit:4;stroke-dasharray:none"
         id="path876" />
      <path
         d="M 84.97717,198.12474 L 75.616041,197.36972 L 77.920843,201.82605 C 77.920843,201.82605 74.951849,202.31425 74.46364,202.31425 L 71.159712,206.44133 L 86.969745,205.95312 M 90.143105,234.24655 L 80.384597,230.32384 C 80.384597,227.34917 75.950975,228.17232 74.46364,226.68498 C 74.46364,222.58629 74.46364,219.61162 71.006437,218.12429 L 64.909498,220.92298 C 63.75142,221.25223 63.598145,227.83738 64.750546,231.62952 C 64.909498,232.78192 72.976305,233.94 72.82303,234.26925 M 93.469741,301.5286 L 95.553145,298.33253 L 100.62825,306.49584 L 95.553145,298.33253 L 93.469741,301.5286 L 89.944415,306.89322 L 80.560579,303.58929 L 79.254903,301.94868 L 77.858398,299.48493 L 74.951849,295.0286 L 83.467127,292.34913"
         style="fill:none;stroke:#ffffff;stroke-width:0.625;stroke-linecap:round;stroke-linejoin:round;stroke-miterlimit:4;stroke-dasharray:none"
         id="path880" />
      <path
         d="M 80.560579,230.47712 L 72.976305,234.26925 L 72.976305,240.36619 C 73.464514,240.8544 73.975431,241.34261 74.951849,241.34261 C 74.951849,241.83082 75.462766,242.49501 75.462766,242.98322 L 78.590711,242.98322 L 84.97717,246.9116 M 74.134383,222.73957 L 75.616041,217.30682 L 78.897262,215.49023 L 81.048788,212.53827 L 70.847485,206.5946 L 66.550108,212.36228 L 70.518228,218.30595"
         style="fill:none;stroke:#ffffff;stroke-width:0.625;stroke-linecap:butt;stroke-linejoin:round;stroke-miterlimit:4;stroke-dasharray:none"
         id="path884" />
      <path
         d="M 94.287207,270.70329 L 91.426074,269.99368 L 84.176734,272.63342 L 78.590711,268.1998 M 89.632189,250.5675 L 87.480662,254.03038 L 87.145727,254.20636 L 87.145727,255.02383 L 82.382849,255.02383 L 79.408178,261.9212"
         style="fill:none;stroke:#ffffff;stroke-width:0.625;stroke-linecap:round;stroke-linejoin:round;stroke-miterlimit:4;stroke-dasharray:none"
         id="path888" />
      <path
         d="M 115.97846,145.65927 C 116.13173,146.01124 116.19986,151.84704 116.19986,151.84704"
         style="fill:none;stroke:#ffffff;stroke-width:0.625;stroke-linecap:round;stroke-linejoin:round;stroke-miterlimit:4;stroke-dasharray:none"
         id="path896" />
      <path
         d="M 116.15444,129.87195 C 116.30772,130.44531 116.30772,139.35797 116.30772,139.35797"
         style="fill:none;stroke:#ffffff;stroke-width:0.625;stroke-linecap:round;stroke-linejoin:round;stroke-miterlimit:4;stroke-dasharray:none"
         id="path904" />
      <path
         d="M 179.19588,162.1335 L 181.50636,153.24355 L 184.62863,148.47499 L 189.57317,145.72739 L 200.21727,141.08941"
         style="fill:none;stroke:#ffffff;stroke-width:0.625;stroke-linecap:butt;stroke-linejoin:round;stroke-miterlimit:4;stroke-dasharray:none"
         id="path908" />
      <path
         d="M 104.62475,329.47006 L 90.608607,335.05609 L 90.273673,319.07007 L 97.52869,321.70981 L 94.531312,315.11898 M 166.02559,197.70465 C 166.36052,198.52212 167.33126,199.34526 168.00113,199.67452 L 168.00113,200.00945 C 169.30681,201.16185 172.12253,201.985 173.43388,203.1374"
         style="fill:none;stroke:#ffffff;stroke-width:0.625;stroke-linecap:round;stroke-linejoin:round;stroke-miterlimit:4;stroke-dasharray:none"
         id="path912" />
      <path
         d="M 130.43172,208.34875 C 131.10159,208.34875 131.43085,208.67801 132.56054,209.83608 C 133.40639,211.14176 133.55967,212.14089 133.40639,212.78237 C 132.56054,216.42123 135.17757,224.15878 137.3291,224.97625 C 136.02342,224.97625 132.40727,227.10507 129.94919,227.61598 C 128.28587,227.95092 125.82212,228.28585 123.84658,228.10419 C 121.54177,226.31031 122.51819,226.62254 121.69505,225.64612 C 121.36579,225.31118 120.72431,224.97625 120.38937,223.82385 C 119.72518,223.49459 119.39025,221.36577 119.07802,221.03084 C 118.08457,220.36664 117.59636,220.03171 117.26143,218.72603 C 117.26143,217.41468 117.59636,216.59721 117.26143,215.26883 C 116.77322,215.26883 115.77409,213.29329 115.77409,213.62254 C 116.59724,211.9649 115.1099,210.16534 117.08544,208.83696 L 118.41383,207.86054 C 119.07802,207.86054 124.82299,212.78237 126.64526,209.50115 C 126.82125,209.16622 126.64526,208.34875 126.82125,207.70726 C 127.30946,207.70726 127.46273,207.70726 130.43172,208.34875 z "
         style="fill:none;stroke:#000000;stroke-width:0.625;stroke-linecap:round;stroke-linejoin:round;stroke-miterlimit:4;stroke-dasharray:none;stroke-opacity:1"
         id="path924" />
      <path
         d="M 155.49503,111.72873 C 155.49503,112.41563 153.83171,115.52086 155.00682,115.69685 C 156.97668,115.69685 158.77625,115.69685 160.2579,116.67327 C 160.59284,116.67327 160.59284,117.18418 160.59284,117.18418 L 157.9531,116.85492 C 157.9531,117.67239 159.1055,117.67239 159.1055,118.33658 C 159.1055,118.49554 158.28804,118.49554 158.28804,118.49554 C 157.28891,118.33658 156.64743,118.49554 155.97756,118.33658 C 155.97756,117.34313 156.15922,117.34313 156.15922,116.51999 C 156.15922,116.67327 155.31337,117.0082 155.00682,117.18418 C 154.33695,118.98374 153.03127,121.6178 152.52036,123.76933 C 152.52036,124.10426 152.85529,124.25754 152.85529,124.59247 L 155.97756,125.08068 C 155.97756,125.08068 155.97756,126.89728 156.15922,127.05055 C 156.15922,127.05055 164.05004,127.38549 158.61729,128.20863 L 157.62385,128.53789 C 157.62385,128.53789 157.28891,128.87282 156.97668,129.20208 L 156.97668,129.53701 C 157.28891,130.66671 158.44131,131.3309 159.1055,132.66496 C 160.10463,132.66496 161.74524,131.84181 162.74437,131.51256 C 164.71991,130.66671 167.02471,130.1785 167.51292,127.8964 C 167.51292,125.5916 170.64087,123.28112 169.15353,120.64706 C 168.00113,118.82479 167.02471,115.36759 169.15353,113.551 C 167.51292,113.23877 165.69065,113.88025 163.72078,113.551 C 160.59284,113.23877 159.1055,112.41563 155.49503,111.72873 z M 113.492,188.99068 C 112.51558,187.83828 112.3396,187.32737 113.33872,186.35095 C 113.00379,186.35095 112.18632,185.68676 111.85139,185.68676 C 111.1872,185.68676 110.36405,184.52868 110.36405,183.86449 L 110.36405,181.73567 C 108.39418,180.25401 108.39418,178.27846 109.87584,176.79113 C 108.57017,175.792 108.21253,174.82126 108.57017,173.4872 L 110.03479,171.51733 C 110.523,171.20511 110.85226,171.35838 111.1872,170.87017 M 113.492,186.35095 C 114.49112,186.6802 116.61994,185.5278 117.92562,185.5278 M 110.03479,176.95008 L 115.30859,177.76755 L 116.46667,177.12606 C 116.77322,177.12606 117.43741,177.12606 117.43741,176.30292 C 117.43741,175.97366 117.77234,175.97366 118.10728,175.792 L 118.43654,174.97454 M 110.69899,182.0706 L 112.82781,182.71208 L 116.13173,182.71208 L 117.28413,181.24746 C 117.61907,180.9182 117.92562,180.9182 117.77234,181.89462 C 118.10728,181.89462 118.10728,181.89462 118.10728,182.22388 C 118.43654,182.22388 118.59549,181.58239 118.92474,181.58239 C 118.92474,180.74222 119.41295,179.58414 118.92474,179.09593 M 112.82781,171.51733 L 112.3396,172.02257 L 112.3396,173.17497 C 113.00379,173.99812 114.6444,173.66318 115.46754,173.82213 L 117.61907,172.35751 L 118.28326,171.20511 C 118.28326,170.69419 118.28326,170.0527 118.59549,170.38196 C 118.92474,170.38196 118.92474,170.38196 118.92474,170.69419 L 119.41295,172.02257 C 120.90029,171.69332 121.71776,170.38196 122.71688,170.54091 M 119.92387,171.84659 L 120.07715,174.33305 C 120.25881,176.46187 121.71776,175.97366 121.89942,176.46187 C 122.87016,176.95008 122.87016,177.76755 124.20422,178.6134 M 113.64527,188.99068 C 114.80335,189.29723 115.30859,188.99068 115.7968,188.99068 M 127.48544,179.91907 L 126.84395,179.09593 M 120.56536,165.43742 L 123.54003,166.92476 L 125.50989,168.71864 C 126.84395,169.87105 127.48544,171.51733 126.84395,173.4872 C 127.82037,175.48545 126.99723,178.6134 125.9981,180.42999"
         style="fill:none;stroke:#000000;stroke-width:0.625;stroke-linecap:round;stroke-linejoin:round;stroke-miterlimit:4;stroke-dasharray:none;stroke-opacity:1"
         id="path932" />
    </g>
  </g>
</svg>
